<svg xmlns="http://www.w3.org/2000/svg" class="svg-logo" width="600" height="300" viewBox="0 0 630 430" style="height: auto;"><rect width="630" height="630" y="-100" rx="0" ry="0" fill="transparent" fill-opacity="0"></rect><g data-element="wrapper" transform="translate(-3.069544618483633e-12 -58.500015258791734) scale(1.0000000000000098)"><g data-element="container" transform="translate(238.80963030788635 138.80974751710892) scale(0.25396825396825395)"><g ><path id="fill_x5F_1_106_" d="M320.497,596.241c-8.395,0-15.547-5.296-17.004-12.592l-0.581-2.908l-32.269-1.574
	l-0.826,2.905c-1.93,6.787-8.216,11.173-16.017,11.173c-1.015,0-2.051-0.074-3.099-0.229l-3.235-0.495
	c-4.85-0.73-9.431-1.42-13.886-2.747c-8.834-2.255-14.56-9.577-13.759-17.446l0.309-3.022l-2.88-0.968
	c-5.379-1.806-10.706-3.774-16.035-5.741c-2.88-1.064-11.479-4.185-11.479-4.185l-1.639,2.518
	c-2.809,4.306-7.529,6.774-12.954,6.774c-2.837,0-5.806-0.69-8.581-1.995l-8.055-3.904c-1.544-0.82-3.149-1.806-4.754-2.79
	l-2.713-1.642c-7.612-4.649-10.913-13.316-7.798-20.573l1.182-2.75l-25.856-19.345l-2.301,1.878
	c-2.623,2.144-5.899,3.276-9.475,3.276c-4.491,0-8.933-1.797-12.509-5.057c-3.882-3.291-7.186-6.944-10.681-10.811l-1.621-1.788
	c-6.038-6.61-6.607-15.856-1.364-21.99l1.946-2.277l-1.757-2.425c-1.819-2.512-3.696-4.983-5.574-7.455
	c-3.35-4.408-6.814-8.964-9.818-13.632l-1.707-2.654l-2.923,1.191c-1.735,0.708-3.585,1.067-5.497,1.067
	c-5.97,0-11.798-3.505-15.203-9.147c-1.998-3.183-3.57-6.533-5.231-10.078c-0.9-1.921-1.8-3.842-2.765-5.726
	c-1.871-3.885-2.41-8.231-1.475-12.163c1.061-3.709,3.489-7.031,6.802-9.193l2.533-1.652l-5.565-15.203
	c-1.398-3.712-2.966-7.882-3.863-12.02l-0.708-3.273l-3.338,0.291c-0.414,0.037-0.829,0.053-1.243,0.053
	c-7.501,0-14.192-5.716-16.267-13.901c-0.804-3.653-1.361-7.473-1.924-11.297c-0.3-2.048-0.6-4.095-0.94-6.134
	c-0.653-4.318,0.108-8.621,2.156-12.064c2.178-3.239,5.506-5.707,9.264-6.774l2.911-0.829l-0.956-18.81
	c-0.186-3.461-0.365-6.731-0.065-9.96l0.309-3.356l-3.297-0.708c-7.773-1.673-13.069-9.385-12.593-18.343
	c0.105-3.749,0.702-7.38,1.336-11.222c0.346-2.107,0.693-4.213,0.956-6.329c0.65-4.25,2.663-8.144,5.657-10.867
	c2.635-2.369,6.542-3.792,10.437-3.792h2.889l1.132-2.781c0.835-3.007,1.584-6.038,2.332-9.072
	c1.318-5.348,2.685-10.879,4.519-16.069l1.064-3.016l-2.79-1.565c-6.935-3.885-9.707-12.821-6.595-21.25
	c1.268-3.517,2.911-6.842,4.649-10.365c0.937-1.896,1.871-3.795,2.747-5.719c1.875-3.888,4.937-7.015,8.59-8.732
	c1.927-0.776,4.117-1.212,6.332-1.212c1.754,0,3.474,0.278,5.113,0.823l2.877,0.956l11.825-19.466
	c0.65-0.931,1.463-2.011,2.277-3.087l3.322-4.501l-2.187-2.304c-5.497-5.781-5.562-15.191-0.152-22.373l11.831-13.08
	c3.217-3.761,7.631-5.787,12.491-5.787c3.406,0,6.74,1.055,9.385,2.969l2.487,1.8l6.353-5.753
	c5.172-4.742,10.059-9.218,15.59-13.013l2.719-1.868l-1.466-2.954c-3.576-7.201-0.804-16.567,6.307-21.325l15.231-9.258
	c1.905-1.154,3.938-1.967,6.035-2.413c0.585-0.08,1.398-0.136,2.202-0.136c1.225,0,2.487,0.127,3.758,0.381
	c3.947,0.804,7.424,2.942,9.775,6.007l1.878,2.456l14.649-7.053c2.391-1.018,5.002-1.955,7.609-2.892
	c1.472-0.529,2.945-1.061,4.408-1.615l2.883-1.095l-0.476-3.047c-0.594-3.802,0.269-7.761,2.425-11.154
	c1.438-2.224,4.624-6.159,9.648-7.26l17.56-4.516c1.401-0.405,2.741-0.597,4.095-0.597c2.685,0,5.438,0.742,7.959,2.147
	c3.57,1.952,6.251,5.011,7.585,8.63l1.07,2.914l16.085-2.45c2.524-0.195,5.327-0.328,8.129-0.461l7.752-0.411l0.448-3.068
	c0.557-3.811,2.546-7.343,5.605-9.942c2.307-1.89,6.016-4.194,10.288-4.194c0.34,0,19.129,0.956,19.129,0.956
	c2.224,0.118,4.361,0.588,6.338,1.395c1.528,0.714,3.192,1.93,4.785,3.551c2.802,2.889,4.476,6.62,4.689,10.483l0.17,3.081
	l16.063,2.456c2.62,0.377,5.181,1.067,7.894,1.797c1.537,0.414,3.078,0.829,4.628,1.188l2.997,0.696l1.305-2.79
	c2.58-5.534,8.667-9.252,15.145-9.252c1.837,0,3.662,0.297,5.429,0.878l16.79,6.14c2.094,0.77,3.997,1.853,5.648,3.211
	c1.302,1.281,2.555,2.973,3.498,4.822c1.837,3.604,2.329,7.65,1.392,11.392l-0.752,3.003l14.646,7.065
	c2.255,1.259,4.643,2.725,7.034,4.188l6.616,3.99l2.091-2.273c2.611-2.833,6.248-4.634,10.251-5.064
	c0.674-0.074,1.355-0.114,2.038-0.114c2.586,0,6.357,0.554,9.642,3.183l14.501,10.845c4.275,2.969,5.76,7.863,6.27,10.523
	c0.702,3.897-0.003,7.885-1.992,11.179l-1.584,2.62l2.224,2.103c1.151,1.089,2.332,2.144,3.517,3.198
	c2.109,1.881,4.102,3.656,5.889,5.608l10.931,12.023l2.666-1.581c2.397-1.423,5.231-2.174,8.191-2.174
	c5.444,0,10.294,2.474,13.304,6.786l10.826,14.51c4.627,7.155,3.687,16.7-2.335,22.002l-2.499,2.199l1.853,2.765
	c3.304,4.943,5.825,10.279,8.491,15.93c1.107,2.348,2.218,4.699,3.384,7.015l1.349,2.679l2.917-0.687
	c1.191-0.278,2.419-0.421,3.647-0.421c2.666,0,5.382,0.674,7.851,1.952c4.204,2.15,6.514,6.323,7.714,9.45l1.952,5.339
	c1.398,3.802,2.799,7.6,4.083,11.436c2.196,8.46-1.442,17.143-8.726,20.397l-2.926,1.308l2.422,9.481l3.372,22.157l3.031,0.214
	c3.885,0.272,7.634,2.001,10.557,4.875c2.651,2.66,4.222,6.57,4.519,11.278l0.879,17.897c-0.421,8.618-6.487,15.844-14.421,16.821
	l-3.319,0.411l-0.019,3.344c-0.031,6.041-0.98,11.961-1.983,18.232c-0.396,2.459-0.789,4.918-1.126,7.383l-0.408,3.004l2.836,1.067
	c6.87,2.583,12.401,10.656,9.765,19.695l-4.532,17.536c-2.478,7.108-9.001,12.082-16.14,12.082l0,0
	c-0.851,0-1.704-0.071-2.552-0.226l-3.288-0.588l-1.008,3.186c-1.748,5.528-4.297,10.693-6.994,16.162
	c-1.216,2.462-2.431,4.924-3.57,7.421l-1.237,2.713l2.342,1.85c3.056,2.41,5.175,5.948,5.964,9.96
	c0.715,3.697-0.182,7.82-2.592,11.906c-1.033,1.658-2.085,3.406-3.137,5.153c-2.014,3.347-4.027,6.697-6.214,9.923
	c-3.514,4.727-8.989,7.628-14.547,7.628c-2.434,0-4.727-0.548-6.818-1.63l-2.976-1.537l-1.899,2.759
	c-2.045,2.97-4.495,5.639-7.083,8.469l-11.958,13.149l1.704,2.481c2.274,3.307,3.279,7.353,2.756,11.102
	c-0.606,3.953-2.737,7.786-5.992,10.74c-1.454,1.256-2.932,2.626-4.411,4c-2.932,2.716-5.698,5.283-8.794,7.408
	c-3.514,2.632-7.563,4.031-11.535,4.031c-4.154,0-7.971-1.494-10.749-4.21l-2.199-2.15l-2.564,1.704
	c-4.705,3.13-9.555,6.047-14.408,8.964c-2.635,1.584-5.274,3.17-7.888,4.788l-2.552,1.581l0.946,2.852
	c2.54,7.64-1.426,15.794-9.645,19.828l-8.083,3.873c-1.615,0.742-3.347,1.358-5.079,1.98c-1.021,0.368-2.039,0.733-3.047,1.123
	c-2.184,0.801-4.488,1.219-6.787,1.219c-6.1,0-11.525-3.031-14.161-7.909l-1.411-2.614l-31.282,8.042l0.046,2.997
	c0.13,7.888-6.227,14.628-15.11,16.026l-8.868,1.333c-1.683,0.158-3.57,0.247-5.456,0.337l-3.18,0.17L320.497,596.241z" fill="transparent" fill-opacity="0"></path>
<path id="frame_x5F_1_106_" d="M600,300.463l-0.882-17.95c-0.34-5.414-2.193-10.28-5.648-13.753
	c-3.539-3.476-8.089-5.612-12.954-5.952l-1.989-13.014l-0.996-6.507l-1.63-6.378c8.816-3.938,13.542-14.48,10.78-25.074
	c-1.902-5.683-4.055-11.289-6.091-16.931c-1.949-5.069-5.098-9.204-9.515-11.461c-4.398-2.277-9.369-2.973-14.114-1.856
	c-3.944-7.834-7.22-16.033-12.113-23.35c7.21-6.346,8.819-17.954,2.871-27.127l-10.755-14.411
	c-6.276-8.992-18.343-10.573-26.552-5.709l-8.856-9.739c-2.963-3.236-6.412-5.985-9.595-8.999c2.509-4.152,3.338-9.045,2.471-13.864
	c-0.916-4.745-3.254-9.744-7.727-12.845l-14.402-10.771c-4.25-3.397-9.592-4.412-14.464-3.877c-4.878,0.524-9.351,2.696-12.639,6.27
	c-3.767-2.246-7.461-4.629-11.293-6.758l-11.859-5.718c1.182-4.716,0.541-9.66-1.692-14.044c-1.117-2.191-2.623-4.239-4.47-6.031
	c-1.933-1.59-4.213-2.91-6.759-3.847l-16.904-6.178c-10.387-3.427-21.179,1.736-25.21,10.374c-4.272-0.989-8.457-2.413-12.803-3.042
	l-13.013-1.99c-0.269-4.858-2.342-9.399-5.775-12.936c-1.714-1.744-3.752-3.336-6.057-4.402c-2.314-0.947-4.875-1.532-7.585-1.673
	l-17.95-0.9c-5.419-0.486-10.4,1.986-14.121,5.037c-3.733,3.174-6.202,7.483-6.904,12.285c-4.38,0.251-8.772,0.38-13.14,0.735
	l-13.016,1.982c-1.676-4.56-4.986-8.281-9.301-10.638c-4.309-2.4-9.62-3.435-14.851-1.911l-17.427,4.484
	c-5.323,1.168-9.403,4.851-12.042,8.934c-2.632,4.139-3.721,8.986-2.973,13.782c-4.102,1.556-8.287,2.913-12.317,4.638l-11.863,5.71
	c-2.957-3.861-7.226-6.442-12.048-7.425c-2.403-0.481-4.968-0.616-7.492-0.234c-2.45,0.518-4.9,1.475-7.223,2.88l-15.367,9.348
	c-9.085,6.077-11.85,17.61-7.6,26.172c-7.254,4.982-13.521,11.159-20.047,17.024c-7.857-5.69-19.8-4.983-26.927,3.345L67.124,109.51
	c-6.582,8.738-6.217,20.281,0.433,27.28c-1.296,1.768-2.66,3.491-3.904,5.297l-3.418,5.624l-6.836,11.252
	c-4.631-1.54-9.669-1.311-14.26,0.557c-4.293,2.016-8.076,5.705-10.434,10.599c-2.484,5.455-5.466,10.697-7.504,16.34
	c-3.792,10.272-0.105,21.173,8.302,25.885c-2.923,8.271-4.584,16.937-6.929,25.388c-4.819-0.087-9.793,1.579-13.353,4.779
	c-3.514,3.197-6.05,7.838-6.87,13.208c-0.745,5.943-2.15,11.825-2.317,17.821c-0.581,10.918,6.165,20.233,15.59,22.26
	c-0.405,4.382-0.006,8.764,0.192,13.146l0.665,13.146c-4.699,1.335-8.726,4.361-11.491,8.489c-2.428,4.084-3.452,9.258-2.639,14.629
	c0.984,5.912,1.639,11.89,2.929,17.741c2.691,10.613,11.915,17.538,21.526,16.699c0.931,4.3,2.462,8.415,4.009,12.524l4.525,12.364
	c-4.074,2.659-7.077,6.765-8.423,11.499c-1.098,4.617-0.572,9.876,1.788,14.771c2.728,5.335,4.934,10.956,8.126,16.038
	c5.657,9.368,16.465,13.276,25.389,9.636c4.745,7.374,10.362,14.157,15.509,21.259c-6.527,7.634-5.936,18.94,1.441,27.019
	c4.034,4.433,7.968,8.966,12.552,12.847c8.083,7.372,19.5,8,26.948,1.919l21.08,15.773c-3.867,9.003,0.025,19.645,9.36,25.35
	c2.583,1.52,5.092,3.176,7.739,4.576l8.095,3.921c9.904,4.657,20.824,2.311,26.336-6.144c8.256,2.973,16.45,6.147,24.761,8.938
	c-0.974,9.568,5.843,18.77,16.453,21.476c5.766,1.716,11.733,2.426,17.656,3.357c10.826,1.589,20.564-3.956,23.323-13.665
	l26.292,1.283c1.884,9.425,11.092,16.185,22.011,15.615c2.988-0.185,5.989-0.25,8.967-0.542l8.893-1.336
	c10.811-1.701,18.482-9.965,18.321-19.842l25.5-6.558c4.597,8.511,15.383,12.198,25.665,8.431c2.793-1.083,5.673-1.968,8.395-3.221
	l8.113-3.887c9.824-4.818,14.758-14.873,11.578-24.44c7.458-4.619,15.104-8.963,22.401-13.822c6.882,6.732,18.343,7.167,27.09,0.595
	c4.955-3.401,9.079-7.811,13.61-11.727c4.018-3.65,6.48-8.33,7.201-13.029c0.665-4.772-0.65-9.801-3.387-13.78l8.853-9.741
	c2.957-3.243,5.985-6.427,8.482-10.048c8.571,4.43,19.732,1.539,26.255-7.242c3.359-4.957,6.316-10.188,9.478-15.279
	c2.759-4.677,3.981-9.74,3.05-14.574c-0.959-4.863-3.511-9.186-7.34-12.206c3.641-7.979,8.077-15.621,10.73-24.018
	c9.481,1.699,19.46-4.309,23.045-14.648l4.501-17.424c3.072-10.537-3.013-20.906-12.076-24.313
	c1.185-8.69,3.096-17.309,3.143-26.112C591.84,320.061,599.49,311.384,600,300.463z M554.301,195.971
	c0.779,2.132,3.152,3.181,5.302,2.344c2.15-0.838,3.236-3.307,2.425-5.515c-0.421-1.091-0.764-2.215-1.25-3.279
	c5.147-0.321,10.007,2.954,11.992,8.318c1.977,5.485,4.077,10.931,5.927,16.454c1.438,5.537-0.715,11.189-4.989,14.086l-0.875-3.401
	c-0.585-2.277-2.852-3.596-5.067-2.943c-2.212,0.652-3.551,2.963-2.985,5.161l0.848,3.3c-5.125-0.426-9.598-3.798-10.879-8.824
	c-1.704-5.043-3.641-10.012-5.438-15.025c-1.8-4.863-0.022-10.387,3.78-13.861C553.561,193.821,553.892,194.912,554.301,195.971z
	 M509.947,122.895c0.755,0.85,1.556,1.659,2.267,2.542c1.358,1.819,3.925,2.131,5.732,0.697c1.807-1.435,2.128-4.124,0.718-6.006
	c-0.733-0.909-1.559-1.744-2.332-2.621c4.989-1.96,10.625-0.293,14.028,4.306l10.461,14.008c3.211,4.725,2.639,10.887-0.544,14.89
	l-1.825-3c-1.222-2.009-3.768-2.603-5.688-1.324c-1.921,1.278-2.524,3.887-1.346,5.828l1.769,2.913
	c-5.067,1.139-10.146-0.884-13.056-5.172l-9.586-12.8C507.469,132.976,507.506,127.198,509.947,122.895z M448.203,68.76l2.914,1.768
	c1.977,1.121,4.51,0.683,5.803-1.197c1.321-1.924,0.851-4.604-1.197-5.771l-2.997-1.824c4.086-3.177,10.288-3.715,14.764-0.139
	l14.003,10.472c4.708,3.268,5.797,9.525,3.95,14.261l-2.598-2.36c-1.748-1.571-4.318-1.438-5.818,0.396
	c-1.423,1.736-1.271,4.455,0.414,5.973l2.521,2.293c-4.529,2.601-9.812,1.956-14.105-0.981l-12.806-9.575
	C449.004,78.806,447.025,73.751,448.203,68.76z M378.94,28.032l-3.4-0.876c2.92-4.109,8.769-6.714,14.102-4.622l16.428,6.008
	c2.676,0.987,4.838,2.695,6.255,4.818c1.349,2.288,1.989,4.91,1.788,7.509l-3.164-1.522c-2.119-1.023-4.677,0.205-5.528,2.296
	c-0.891,2.184,0.198,4.393,2.24,5.384l3.072,1.48c-1.748,1.854-3.981,3.093-6.344,3.592c-2.434,0.662-5.036,0.664-7.476-0.233
	l-15.008-5.498c-4.822-1.927-8.293-5.912-8.602-11.165l3.301,0.847c2.199,0.564,4.535-0.765,5.221-2.967
	C382.509,30.88,381.216,28.619,378.94,28.032z M303.706,8.372l17.458,0.877c2.846,0.147,5.41,1.155,7.393,2.74
	c1.974,1.71,3.353,4.09,3.935,6.616l-3.471-0.528c-2.335-0.251-4.408,1.608-4.603,3.878c-0.204,2.327,1.485,4.188,3.74,4.43
	l3.368,0.516c-1.12,2.303-2.88,4.085-4.996,5.336c-2.134,1.377-4.618,2.131-7.22,2.002l-15.973-0.811
	c-5.184-0.503-9.676-3.258-11.516-8.179l3.402-0.173c2.27-0.116,4.111-2.081,4.117-4.387c0.006-2.308-1.89-4.082-4.238-3.965
	l-3.508,0.176C293.183,12.106,297.999,7.862,303.706,8.372z M217.408,20.013l16.942-4.358c5.503-1.603,11.018,1.199,13.595,5.735
	l-3.471,0.531c-2.339,0.279-3.777,2.662-3.294,4.911c0.486,2.264,2.642,3.55,4.903,3.287l3.369-0.512
	c-0.823,5.023-4.566,9.001-9.549,10.485l-15.479,3.979c-5.085,1.081-10.229-0.381-13.422-4.474l3.201-1.172
	c2.122-0.803,3.316-3.188,2.66-5.34c-0.69-2.261-3.038-3.432-5.24-2.604l-3.297,1.205C208.407,26.569,211.806,21.244,217.408,20.013
	z M138.355,56.594l14.943-9.085c2.434-1.478,5.129-2.087,7.662-1.891c2.614,0.338,5.076,1.495,6.981,3.263l-3.161,1.525
	c-2.091,1.073-2.747,3.797-1.633,5.776c1.148,2.043,3.579,2.611,5.599,1.577l3.068-1.477c0.368,2.526-0.065,5.02-1.129,7.212
	c-0.987,2.336-2.617,4.353-4.841,5.707l-13.666,8.295c-4.442,2.682-9.796,2.805-14.083-0.203l2.728-2.042
	c1.819-1.36,2.24-4.011,0.943-5.919c-1.296-1.909-3.873-2.315-5.757-0.907l-2.812,2.101
	C131.791,65.657,133.471,59.569,138.355,56.594z M73.573,114.819l11.72-12.969c3.891-4.188,9.533-5.469,14.291-3.104
	c-0.894,0.756-1.67,1.634-2.453,2.504c-1.584,1.739-1.513,4.437,0.161,6.028c1.67,1.59,4.263,1.516,5.787-0.165
	c0.761-0.845,1.513-1.699,2.385-2.431c2.082,4.535,1.726,10.416-1.803,14.218l-10.743,11.846c-3.096,4.163-8.519,5.581-13.421,4.025
	l2.038-2.729c1.361-1.819,1.002-4.464-0.795-5.908c-1.8-1.445-4.399-1.089-5.809,0.794l-2.1,2.811
	C69.979,125.434,70.14,119.39,73.573,114.819z M28.929,189.63c1.977-5.488,4.89-10.578,7.3-15.881
	c2.484-5.154,7.708-7.932,12.738-7.185l-1.525,3.162c-1.024,2.118-0.176,4.668,1.89,5.697c2.063,1.027,4.535,0.202,5.521-1.843
	l1.475-3.07c3.539,3.837,4.72,9.454,2.472,14.127c-2.19,4.851-4.903,9.483-6.688,14.505c-1.772,4.873-6.57,7.813-11.726,7.77
	l1.169-3.199c0.779-2.132-0.328-4.548-2.472-5.397c-2.147-0.85-4.541,0.252-5.348,2.461l-1.206,3.297
	C28.548,200.809,26.955,194.999,28.929,189.63z M16.243,283.501l-0.176,3.505c-4.767-1.944-8.012-7.019-7.711-12.727
	c0.152-5.832,1.537-11.547,2.258-17.325c0.863-5.655,5.045-9.854,10.075-10.631l-0.532,3.47c-0.356,2.324,1.203,4.508,3.48,4.878
	c2.277,0.369,4.402-1.151,4.742-3.395l0.514-3.368c4.51,2.614,7.288,7.626,6.505,12.753c-0.647,5.284-1.97,10.496-2.082,15.838
	c-0.25,5.185-3.965,9.416-8.905,10.898l0.173-3.404c0.115-2.268-1.658-4.249-3.959-4.426
	C18.322,279.392,16.364,281.152,16.243,283.501z M31.852,365.746c-0.563-2.198-2.849-3.57-5.098-3.065
	c-2.252,0.505-3.604,2.762-3.019,5.04l0.875,3.401c-5.135-0.457-9.744-4.356-11.157-9.899c-1.256-5.687-1.881-11.501-2.84-17.248
	c-0.863-5.655,1.881-10.89,6.456-13.104l0.526,3.471c0.353,2.325,2.493,3.956,4.779,3.643s3.86-2.387,3.517-4.63l-0.517-3.368
	c5.088,1.178,9.24,5.153,10.022,10.281c0.885,5.251,1.423,10.573,2.573,15.77c1.302,5.02-0.99,10.145-5.268,13.01L31.852,365.746z
	 M64.758,444.578l-1.766-2.912c-1.182-1.94-3.758-2.581-5.757-1.431c-2.001,1.15-2.632,3.711-1.41,5.721l1.822,3.001
	c-5.033,1.079-10.563-1.294-13.524-6.187c-3.109-4.937-5.237-10.409-7.894-15.593c-2.484-5.154-1.401-10.974,2.317-14.446
	l1.522,3.164c1.021,2.119,3.539,3.046,5.63,2.069c2.091-0.976,2.985-3.426,2.001-5.47l-1.482-3.069
	c5.206-0.381,10.331,2.193,12.583,6.865c2.438,4.732,4.334,9.757,7.201,14.258C68.701,434.977,68.008,440.568,64.758,444.578z
	 M117.667,507.333l-2.521-2.292c-1.68-1.527-4.318-1.398-5.893,0.288c-1.574,1.687-1.438,4.336,0.3,5.917l2.598,2.361
	c-4.479,2.495-10.427,1.814-14.656-2.037c-4.464-3.767-8.281-8.182-12.203-12.493c-3.848-4.23-4.491-10.141-1.949-14.567l2.36,2.599
	c1.581,1.74,4.247,1.897,5.957,0.348c1.711-1.549,1.859-4.166,0.331-5.846l-2.292-2.521c4.847-1.886,10.471-0.903,13.96,2.939
	c3.582,3.947,7.049,8.008,11.157,11.432C118.663,496.945,119.607,502.531,117.667,507.333z M183.599,550.32
	c-2.045-0.986-4.519-0.102-5.528,1.973c-1.008,2.076-0.108,4.584,2.011,5.605l3.164,1.523c-3.539,3.688-9.406,4.745-14.557,2.259
	l-7.875-3.805c-2.574-1.361-5.008-2.977-7.517-4.455c-4.893-2.965-7.219-8.471-6.078-13.463l3,1.823
	c2.011,1.221,4.593,0.605,5.775-1.379c1.179-1.982,0.563-4.545-1.376-5.723l-2.914-1.769c4.071-3.21,9.71-3.879,14.139-1.181
	c2.295,1.353,4.513,2.846,6.867,4.089l7.204,3.458c4.674,2.247,7.201,7.349,6.753,12.525L183.599,550.32z M261.267,581.572
	l3.471,0.528c-2.286,4.565-7.572,7.298-13.227,6.432c-5.757-0.904-11.559-1.582-17.161-3.261c-5.543-1.418-9.391-6.017-9.778-11.134
	l3.4,0.875c2.28,0.586,4.563-0.757,5.101-3.001c0.541-2.243-0.804-4.52-3.003-5.085l-3.301-0.848
	c2.939-4.261,8.114-6.542,13.134-5.243c5.11,1.567,10.424,2.149,15.689,2.972c5.129,0.779,9.051,4.92,10.158,10.001l-3.369-0.515
	c-2.246-0.343-4.346,1.228-4.692,3.508C257.339,579.083,258.944,581.218,261.267,581.572z M338.53,589.851l-8.646,1.307
	c-2.895,0.284-5.815,0.341-8.72,0.52c-5.71,0.295-10.734-2.954-12.605-7.725l3.505-0.176c2.348-0.118,4.139-2.08,3.996-4.383
	c-0.145-2.302-2.097-4.076-4.365-3.961l-3.406,0.172c1.556-4.943,5.837-8.662,11.021-8.918c2.66-0.16,5.333-0.196,7.984-0.454
	l7.9-1.218c5.125-0.787,10.087,1.996,12.63,6.522l-3.368,0.513c-2.246,0.342-3.792,2.47-3.458,4.752
	c0.337,2.284,2.493,3.845,4.816,3.49l3.471-0.531C348.437,584.804,344.184,588.992,338.53,589.851z M422.118,565.474l-7.885,3.785
	c-2.645,1.221-5.444,2.074-8.163,3.126c-5.37,1.972-11.129,0.357-14.328-3.648l3.297-1.206c2.209-0.808,3.338-3.211,2.521-5.37
	c-0.817-2.157-3.208-3.274-5.339-2.494l-3.198,1.172c0.028-5.182,3.016-10.002,7.888-11.779c2.481-0.96,5.048-1.717,7.464-2.84
	l7.195-3.478c4.671-2.254,10.239-1.051,14.012,2.522l-3.069,1.478c-2.048,0.984-2.895,3.47-1.899,5.55
	c0.996,2.081,3.52,2.939,5.639,1.918l3.164-1.525C430.098,557.749,427.274,562.995,422.118,565.474z M494.722,517.452
	c-4.408,3.805-8.404,8.109-13.23,11.405c-4.575,3.431-10.579,3.555-14.826,0.662l2.812-2.102c1.884-1.408,2.261-4.025,0.844-5.846
	c-1.417-1.819-4.04-2.193-5.859-0.834l-2.728,2.041c-1.497-4.947-0.04-10.403,4.12-13.504c4.436-2.986,8.055-6.969,12.091-10.441
	c3.839-3.491,9.549-3.947,14.216-1.629l-2.521,2.291c-1.683,1.526-1.776,4.138-0.21,5.833c1.565,1.696,4.244,1.786,5.982,0.204
	l2.595-2.362C500.141,507.798,498.954,513.607,494.722,517.452z M550.029,450.247c-3.075,4.948-5.942,10.039-9.208,14.859
	c-3.415,4.586-9.159,6.435-14.083,4.904l2.103-2.811c1.408-1.883,1.018-4.484-0.872-5.809c-1.887-1.324-4.522-0.924-5.88,0.893
	l-2.042,2.729c-2.867-4.278-3.034-9.891,0.083-14.04c2.985-4.408,5.58-9.077,8.398-13.596c2.691-4.435,8.073-6.512,13.211-5.671
	l-1.76,2.917c-1.182,1.939-0.52,4.453,1.472,5.613c1.995,1.161,4.6,0.472,5.818-1.539l1.81-3.008
	C552.482,439.488,552.992,445.355,550.029,450.247z M545.442,424.005c-4.668-1.274-9.478-0.91-13.582,0.752
	c-4.139,1.655-8.135,4.308-10.498,8.328c-2.731,4.376-5.24,8.904-8.129,13.175c-5.571,7.393-4.553,18.063,1.698,25.598
	c-2.419,3.521-5.367,6.606-8.237,9.753l-8.593,9.457c-4.123-2.625-8.68-3.544-13.245-3.315c-4.637,0.172-9.045,1.735-12.497,4.877
	c-3.916,3.36-7.408,7.236-11.714,10.119c-7.427,5.523-9.527,16.098-5.75,25.152c-7.087,4.712-14.51,8.921-21.742,13.414
	c-6.202-7.009-16.812-10.247-25.095-6.148l-6.966,3.376c-2.338,1.089-4.828,1.814-7.235,2.744
	c-8.692,3.147-13.777,12.743-12.865,22.464l-24.746,6.362c-3.882-8.735-13.032-14.848-22.163-13.377l-7.65,1.189
	c-2.567,0.25-5.159,0.278-7.736,0.433c-9.252,0.449-16.954,8.062-18.94,17.683l-25.528-1.249
	c-1.178-9.272-8.126-17.908-17.279-19.225c-5.098-0.795-10.248-1.345-15.194-2.875c-8.949-2.324-18.532,2.662-23.261,11.264
	c-8.067-2.715-16.014-5.802-24.031-8.675c1.624-9.204-2.425-19.574-10.805-23.473l-6.985-3.342c-2.28-1.203-4.423-2.656-6.644-3.967
	c-7.875-4.853-18.615-2.768-25.575,3.897l-20.465-15.31c4.578-8.688,3.464-19.449-3.399-25.661
	c-3.984-3.309-7.337-7.253-10.808-11.078c-6.236-6.843-17.115-7.999-25.531-3.827c-4.986-6.901-10.452-13.476-15.058-20.634
	c6.907-6.953,8.927-17.517,4.099-25.41c-2.784-4.356-4.603-9.232-6.969-13.813c-2.023-4.203-5.525-7.306-9.765-9.214
	c-3.987-2.003-8.67-2.828-13.446-1.976l-4.389-11.998c-1.506-3.986-2.997-7.977-3.894-12.152
	c8.646-4.594,13.65-14.068,11.315-23.016c-1.117-5.033-1.624-10.191-2.484-15.277c-0.699-4.613-3.155-8.611-6.632-11.691
	c-3.133-3.106-7.421-5.276-12.218-5.877l-0.643-12.763c-0.192-4.254-0.594-8.509-0.189-12.763
	c9.62-1.847,17.223-9.442,17.659-18.695c0.096-5.179,1.401-10.223,2.023-15.343c0.705-4.612-0.43-9.147-2.852-13.11
	c-2.382-3.942-5.611-7.223-10.084-9.216c2.289-8.197,3.879-16.611,6.722-24.636c9.74,1.071,19.249-3.93,22.398-12.624
	c1.72-4.868,4.362-9.347,6.48-14.047c2.026-4.202,2.271-8.877,1.12-13.385c-0.866-4.341-3.177-8.545-6.808-11.746l6.635-10.92
	l3.313-5.462c1.206-1.753,2.533-3.423,3.795-5.139c8.973,3.893,19.478,1.876,24.99-5.56l10.415-11.472
	c5.976-7.098,7.034-17.309,2.007-25.646c6.338-5.69,12.41-11.701,19.459-16.525c7.492,6.435,17.857,7.195,25.538,2.052l13.242-8.032
	c1.992-1.216,3.681-2.775,5.067-4.587c1.463-1.674,2.663-3.524,3.508-5.601c1.701-4.126,2.122-8.965,0.913-13.667l11.507-5.549
	c3.913-1.673,7.977-2.981,11.955-4.492c2.57,4.13,6.369,7.189,10.536,8.839c4.197,1.698,8.667,1.669,13.251,0.716l14.99-3.852
	c4.476-1.353,8.358-3.701,11.225-7.11c2.846-3.449,4.68-7.955,4.918-12.808l12.63-1.932c4.241-0.341,8.506-0.46,12.757-0.704
	c1.234,4.705,3.962,8.751,7.461,11.56c3.514,2.932,7.804,4.064,12.469,4.539l15.482,0.789c2.335,0.114,4.609-0.228,6.78-0.948
	c2.153-0.601,4.182-1.417,6.053-2.662c3.727-2.444,6.796-6.201,8.445-10.766l12.63,1.924c4.219,0.604,8.274,1.999,12.419,2.958
	c-0.368,9.894,5.534,18.332,14.3,21.237l14.532,5.328c2.196,0.798,4.467,1.144,6.749,1.097c2.196,0.155,4.408-0.1,6.558-0.719
	c4.29-1.241,8.339-3.927,11.266-7.802l11.513,5.542c3.718,2.068,7.3,4.387,10.956,6.565c-1.63,4.58-1.655,9.453-0.343,13.738
	c1.321,4.286,4.052,7.884,7.681,10.842l12.41,9.275c3.876,2.627,7.971,4.4,12.524,4.392c4.491,0.052,9.171-1.342,13.115-4.19
	c3.09,2.927,6.449,5.587,9.32,8.731l8.593,9.459c-5.874,7.958-5.497,18.037-0.257,25.698l9.292,12.397
	c4.996,7.778,15.064,10.865,24.39,7.764c4.767,7.094,7.922,15.062,11.757,22.661c-3.907,2.863-6.616,6.855-7.875,11.102
	c-1.228,4.249-1.692,9.044-0.012,13.392c1.738,4.855,3.619,9.665,5.274,14.548c2.267,8.966,11.213,14.823,20.991,14.64l1.59,6.187
	l0.962,6.316l1.927,12.631c-4.575,1.576-8.339,4.584-10.786,8.267c-2.524,3.703-4.318,8.149-4.021,12.807l0.807,15.482
	c-0.507,9.25,6.285,17.484,15.683,20.175c-0.031,8.55-1.912,16.909-3.053,25.345c-9.747,0.406-17.594,6.936-20.264,15.814
	l-3.836,14.996c-3.078,8.713,0.882,18.544,9.091,23.904C553.299,408.852,548.968,416.258,545.442,424.005z M583.065,369.694
	l-4.368,16.939c-1.813,5.421-6.895,8.842-12.033,8.838l1.206-3.297c0.807-2.209-0.319-4.572-2.515-5.279
	c-2.196-0.706-4.612,0.449-5.391,2.58l-1.172,3.199c-4.021-3.245-5.698-8.51-4.043-13.42l3.969-15.482
	c1.222-5.035,5.989-8.562,10.863-9.34c-0.13,1.131-0.38,2.238-0.693,3.332c-0.566,2.198,0.798,4.399,3.044,4.917
	c2.249,0.518,4.544-0.91,5.128-3.188c0.319-1.128,0.575-2.268,0.715-3.433C582.43,358.734,584.416,364.138,583.065,369.694z
	 M578.907,304.642c-2.308-0.028-4.272,1.788-4.386,4.056l-0.173,3.403c-4.77-1.913-8.036-6.454-7.761-11.638l-0.823-15.975
	c-0.26-5.184,3.01-9.933,7.758-12.132l0.167,3.404c0.115,2.268,2.072,3.973,4.374,3.809c2.301-0.164,4.068-2.201,3.947-4.549
	l-0.179-3.505c4.924,1.227,8.658,5.784,8.949,11.493l0.866,17.457c-0.275,5.709-4.009,10.474-8.952,11.987l0.176-3.506
	C582.987,306.597,581.215,304.67,578.907,304.642z" fill="#f4f4f4" fill-opacity="1"></path></g></g><g ><g data-element="icon" transform="scale(0.19361178025582895) translate(1326.9665953222661 817.9326324462891)"><path id="color_x5F_1" d="M476.665,390.181c12.52-21.681,4.919-52.541-21.401-86.896    c-3.712-4.845-7.746-9.691-12.065-14.518c4.319-4.827,8.353-9.673,12.065-14.518c10.465-13.661,17.96-26.766,22.418-38.964    c-2.046,0.283-4.131,0.441-6.253,0.441c-3.635,0-7.166-0.442-10.556-1.253c-4.024,9.359-10.137,19.499-18.251,30.09    c-3.218,4.2-6.698,8.403-10.409,12.596c-13.097-13.126-28.24-25.986-44.942-38.171c-2.229-20.885-5.837-40.401-10.604-58.042    c5.485-1.116,10.864-2.029,16.108-2.715c13.228-1.732,25.066-1.957,35.184-0.763c1.634-5.492,4.282-10.547,7.726-14.956    c-12.798-2.242-27.904-2.306-44.977-0.072c-6.057,0.792-12.275,1.864-18.62,3.192c-16.085-48.723-41.703-79.694-71.076-79.694    c-29.366,0-54.979,30.956-71.064,79.658c-7.455-1.551-14.731-2.744-21.774-3.544c-36.898-4.19-64.301,2.552-78.364,19.024    c6.649,0.18,12.946,1.787,18.59,4.542c8.806-5.931,21.849-9.013,38.552-9.013c11.712,0,24.657,1.492,38.407,4.328    c-4.768,17.644-8.378,37.163-10.607,58.052c-16.703,12.186-31.847,25.046-44.943,38.172c-3.71-4.193-7.191-8.395-10.408-12.595    c-0.768-1.002-1.513-1.999-2.245-2.993c-4.138,3.369-8.881,6.017-14.037,7.768c1.175,1.629,2.379,3.264,3.64,4.91    c3.712,4.845,7.745,9.691,12.064,14.518c-4.319,4.827-8.353,9.673-12.064,14.518c-26.32,34.355-33.921,65.215-21.402,86.896    c10.032,17.377,31.513,26.562,62.123,26.562c0.004,0,0.009,0,0.013,0c7.451,0,15.466-0.555,23.822-1.649    c6.057-0.793,12.275-1.865,18.62-3.193c13.493,40.872,33.697,69.242,57.197,77.327c-3.316-6.127-5.25-13.101-5.414-20.505    c-14.245-10.412-26.876-31.939-36.296-60.517c17.935-4.782,36.664-11.473,55.589-19.856c18.925,8.383,37.655,15.074,55.59,19.856    c-2.332,7.076-4.866,13.709-7.568,19.861c4.779,2.662,9.027,6.163,12.548,10.302c3.837-8.08,7.357-16.928,10.506-26.468    c6.345,1.328,12.563,2.4,18.62,3.193c8.361,1.094,16.375,1.649,23.819,1.649C445.147,416.743,466.634,407.558,476.665,390.181z     M212.998,260.259c-0.55,9.299-0.84,18.811-0.84,28.508c0,9.696,0.29,19.208,0.84,28.505c-11.817-9.25-22.651-18.812-32.285-28.507    C190.346,279.071,201.18,269.509,212.998,260.259z M209.247,399.302c-35.59,4.655-61.14-1.572-70.097-17.085    c-8.958-15.514-1.576-40.754,20.252-69.249c3.217-4.199,6.698-8.402,10.407-12.594c13.097,13.126,28.241,25.987,44.944,38.172    c2.229,20.885,5.837,40.4,10.603,58.041C219.872,397.703,214.492,398.616,209.247,399.302z M369.643,226.761    c-7.813-5.152-15.893-10.147-24.204-14.946c-8.346-4.819-16.73-9.329-25.104-13.528c13.913-5.606,27.605-10.206,40.813-13.701    C364.642,197.617,367.512,211.779,369.643,226.761z M301.013,101.864c21.995,0,42.088,26.505,55.589,67.464    c-17.922,4.778-36.639,11.464-55.551,19.838c-18.98-8.427-37.707-15.123-55.611-19.889    C258.941,128.347,279.026,101.864,301.013,101.864z M240.869,184.618c13.148,3.507,26.844,8.108,40.767,13.707    c-8.37,4.191-16.737,8.691-25.05,13.49c-8.311,4.798-16.39,9.793-24.203,14.945C234.512,211.79,237.379,197.639,240.869,184.618z     M240.876,392.945c-3.493-13.03-6.363-27.191-8.494-42.173c7.813,5.152,15.892,10.146,24.203,14.944    c8.334,4.811,16.723,9.323,25.114,13.523C267.782,384.848,254.086,389.449,240.876,392.945z M361.149,392.946    c-13.211-3.496-26.907-8.097-40.824-13.706c8.392-4.201,16.781-8.712,25.115-13.524c8.311-4.798,16.391-9.793,24.204-14.945    C367.512,365.754,364.642,379.915,361.149,392.946z M372.083,329.846c-10.93,7.693-22.509,15.093-34.607,22.078    c-12.112,6.993-24.324,13.328-36.465,18.951c-12.141-5.623-24.353-11.958-36.464-18.951c-12.097-6.984-23.676-14.384-34.606-22.077    c-1.213-13.267-1.859-27.021-1.859-41.08c0-14.06,0.646-27.815,1.859-41.083c10.93-7.693,22.509-15.092,34.606-22.077    c12.096-6.984,24.292-13.311,36.418-18.929c12.189,5.627,24.43,11.955,36.511,18.929c12.097,6.985,23.677,14.384,34.607,22.078    c1.213,13.267,1.859,27.022,1.859,41.082C373.942,302.826,373.297,316.58,372.083,329.846z M421.312,288.766    c-9.633,9.694-20.467,19.256-32.284,28.505c0.55-9.298,0.84-18.809,0.84-28.504c0-9.697-0.29-19.208-0.84-28.507    C400.845,269.51,411.678,279.072,421.312,288.766z M462.874,382.217c-8.957,15.515-34.506,21.744-70.098,17.085    c-5.244-0.686-10.623-1.599-16.107-2.715c4.766-17.641,8.375-37.157,10.603-58.043c16.702-12.185,31.846-25.045,44.942-38.171    c3.71,4.192,7.19,8.395,10.408,12.594C464.449,341.463,471.831,366.703,462.874,382.217z M295.619,467.71    c0-17.329,14.097-31.426,31.425-31.426c17.327,0,31.425,14.097,31.425,31.426c0,17.328-14.098,31.426-31.425,31.426    C309.716,499.136,295.619,485.038,295.619,467.71z M471.429,221.802c-17.328,0-31.426-14.097-31.426-31.426    c0-17.328,14.098-31.426,31.426-31.426c17.329,0,31.426,14.098,31.426,31.426C502.855,207.705,488.758,221.802,471.429,221.802z     M97.146,226.395c0-17.327,14.097-31.424,31.426-31.424c17.328,0,31.425,14.097,31.425,31.424c0,17.329-14.097,31.426-31.425,31.426    C111.243,257.82,97.146,243.724,97.146,226.395z" fill="#f4f4f4" fill-opacity="1"></path></g><path d="M194.23 350.20L194.23 350.20L180.45 350.20Q180.64 342.51 180.64 334.54Q180.64 326.58 179.86 316.45L179.86 316.45Q180.92 314.23 182.83 309.70L182.83 309.70Q183.05 309.20 183.95 308.44Q184.86 307.67 185.55 307.67L185.55 307.67L195.11 307.67Q194.89 311.79 194.89 316.83L194.89 316.83Q194.89 332.58 196.98 348.14L196.98 348.14Q196.98 348.54 195.98 349.37Q194.98 350.20 194.23 350.20ZM172.80 348.58L172.80 348.58Q172.58 349.04 171.83 349.62Q171.08 350.20 170.64 350.20L170.64 350.20L165.67 350.20Q164.36 342.42 162.27 333.83Q160.17 325.23 158.11 319.67L158.11 319.67Q158.23 318.95 158.94 315.28Q159.64 311.61 159.92 309.70L159.92 309.70Q160.02 309.26 160.98 308.47Q161.95 307.67 162.64 307.67L162.64 307.67L171.73 307.67Q173.89 320.17 175.31 324.56Q176.73 328.95 177.92 331.58L177.92 331.58Q174.92 340.54 172.80 348.58ZM157.42 327.61L157.42 327.61Q157.58 335.42 158 339.54Q158.42 343.67 159.83 348.14L159.83 348.14Q159.83 348.54 158.81 349.37Q157.80 350.20 157.05 350.20L157.05 350.20L147.08 350.20Q150.17 342.83 151.92 338.25Q153.67 333.67 154.70 329.64L154.70 329.64Q154.70 329.23 155.70 328.42Q156.70 327.61 157.42 327.61ZM226.92 318.11L226.92 318.11Q219.42 325.29 219.42 337.51L219.42 337.51Q219.42 342.70 220.80 347.95L220.80 347.95Q220.77 348.42 219.78 349.23Q218.80 350.04 218.11 350.04L218.11 350.04Q212.86 349.33 209.02 345.70L209.02 345.70Q204.98 341.89 204.98 336.19Q204.98 330.48 207.84 326.44Q210.70 322.39 215.67 320.25Q220.64 318.11 226.92 318.11ZM222.70 350.48L222.70 350.48Q230.20 343.29 230.20 331.08L230.20 331.08Q230.20 325.89 228.83 320.64L228.83 320.64Q228.86 320.17 229.84 319.36Q230.83 318.54 231.52 318.54L231.52 318.54Q236.77 319.26 240.58 322.89L240.58 322.89Q244.64 326.70 244.64 332.40Q244.64 338.11 241.78 342.15Q238.92 346.20 233.95 348.34Q228.98 350.48 222.70 350.48ZM277.05 348.29L277.05 348.29Q270.64 350.36 264.27 350.36L264.27 350.36Q251.98 350.36 251.98 340.58L251.98 340.58Q251.98 338.45 252.89 332.09Q253.80 325.73 253.80 323.31Q253.80 320.89 253.58 319.61L253.58 319.61Q257.86 317.70 261.11 315.29Q264.36 312.89 267.42 309.39L267.42 309.39Q268.98 308.92 271.48 308.92L271.48 308.92Q269.39 316.29 268.16 324.08Q266.92 331.86 266.92 335.56Q266.92 339.26 267.45 340.90Q267.98 342.54 269.17 343.45L269.17 343.45Q271.27 345.04 275.80 345.04L275.80 345.04Q276.89 345.04 278.11 344.95L278.11 344.95Q277.83 347.01 277.05 348.29ZM271.58 326.58L271.58 326.58Q271.86 322.23 272.98 318.51L272.98 318.51Q276.05 319.79 279.83 320.33L279.83 320.33Q280.08 320.79 280.30 321.87Q280.52 322.95 280.52 323.58L280.52 323.58Q276.17 324.76 271.58 326.58ZM296.98 350.20L283.86 350.20Q286.58 338.70 288.02 321.20L288.02 321.20Q288.02 320.79 289.05 319.98Q290.08 319.17 290.77 319.17L290.77 319.17L303.86 319.17Q301.14 330.86 299.70 348.14L299.70 348.14Q299.70 348.54 298.70 349.37Q297.70 350.20 296.98 350.20L296.98 350.20ZM302.11 314.95L302.11 314.95L289.05 314.95Q289.64 312.54 289.83 310.23L289.83 310.23Q289.83 309.79 290.83 308.97Q291.83 308.14 292.55 308.14L292.55 308.14L305.67 308.14Q305.27 309.61 304.83 312.89L304.83 312.89Q304.83 313.33 303.84 314.14Q302.86 314.95 302.11 314.95ZM335.17 321.01L335.17 321.01Q335.17 320.61 336.25 319.78Q337.33 318.95 338.08 318.95L338.08 318.95L346.27 318.95Q343.02 323.76 338.30 331.51L338.30 331.51Q338.05 331.89 336.81 332.36Q335.58 332.83 334.80 332.83L334.80 332.83Q335.77 329.39 335.77 326.20Q335.77 323.01 335.17 321.01ZM327.77 350.20L318.27 350.20Q316.27 339.61 310.11 320.95L310.11 320.95Q310.11 320.51 311.16 319.70Q312.20 318.89 312.98 318.89L312.98 318.89L326.39 318.89Q326.98 324.04 328.23 328.54L328.23 328.54Q330.55 337.04 333.08 337.04L333.08 337.04Q334.20 337.04 334.88 336.78Q335.55 336.51 335.67 336.48L335.67 336.48Q334.70 338.29 332.63 343.20Q330.55 348.11 330.42 348.37Q330.30 348.64 329.39 349.42Q328.48 350.20 327.77 350.20L327.77 350.20ZM364.95 348.14L364.95 348.14Q364.95 348.54 363.95 349.37Q362.95 350.20 362.20 350.20L362.20 350.20L348.02 350.20Q352.30 332.95 354.11 310.04L354.11 310.04Q354.11 309.67 355.11 308.87Q356.11 308.08 356.83 308.04L356.83 308.04Q366.20 307.26 371.14 307.26L371.14 307.26Q366.64 326.70 364.95 348.14ZM387.64 336.14L387.64 336.14L387.20 342.42Q387.20 344.14 387.83 345.17Q388.45 346.20 390.14 346.45L390.14 346.45Q389.83 348.42 389.11 349.67L389.11 349.67Q383.52 350.98 379.59 350.98Q375.67 350.98 373.53 349.90Q371.39 348.83 371.39 346.54Q371.39 344.26 372.09 340.31Q372.80 336.36 372.80 334.69Q372.80 333.01 372.05 331.89Q371.30 330.76 370.02 330.64L370.02 330.64Q370.17 329.23 371.08 328.14L371.08 328.14Q373.70 326.76 375.17 323.86Q376.64 320.95 376.64 317.58L376.64 317.58Q376.64 312.51 373.61 309.36L373.61 309.36Q373.61 308.89 374.61 308.04Q375.61 307.20 376.33 307.20L376.33 307.20Q381.92 307.20 386.02 309.51L386.02 309.51Q388.08 310.70 389.30 312.76Q390.52 314.83 390.52 317.51L390.52 317.51Q390.52 321.92 386.48 325.01Q382.45 328.11 375.70 328.58L375.70 328.58L378.52 328.83Q382.64 329.23 385.14 331.00Q387.64 332.76 387.64 336.14ZM424.42 319.14L424.42 319.14Q428.67 320.61 430.88 323.25Q433.08 325.89 433.08 328.89L433.08 328.89Q433.08 332.98 429.55 335.83Q426.02 338.67 419.92 338.67L419.92 338.67Q418.02 338.67 415.73 338.04L415.73 338.04Q419.05 335.98 420.20 332.67L420.20 332.67Q421.20 329.79 421.20 325.92L421.20 325.92Q421.20 325.17 421.05 321.33L421.05 321.33Q421.02 320.92 422.31 320.04Q423.61 319.17 424.42 319.14ZM419.36 318.64L419.36 318.64Q415.48 321.26 413.22 325.54Q410.95 329.83 410.95 334.70Q410.95 339.58 414.70 342.64Q418.45 345.70 425.64 345.70L425.64 345.70Q427.61 345.70 429.86 345.36L429.86 345.36Q428.39 347.67 424.20 349.22Q420.02 350.76 415.42 350.76Q410.83 350.76 407.58 349.84Q404.33 348.92 401.78 347.11Q399.23 345.29 397.77 342.37Q396.30 339.45 396.30 335.94Q396.30 332.42 397.39 329.58Q398.48 326.73 400.39 324.70Q402.30 322.67 404.83 321.20L404.83 321.20Q409.86 318.36 416.42 318.36L416.42 318.36Q418.05 318.36 419.36 318.64ZM461.48 318.36L461.48 318.36Q457.77 321.11 455.91 325.81Q454.05 330.51 454.05 335.08Q454.05 339.64 455.06 343.25Q456.08 346.86 457.80 348.08L457.80 348.08Q457.80 348.54 456.80 349.37Q455.80 350.20 455.08 350.20L455.08 350.20Q447.98 350.20 443.63 346.48Q439.27 342.76 439.27 336.45L439.27 336.45Q439.27 328.89 445.11 323.70L445.11 323.70Q447.89 321.23 452.13 319.79Q456.36 318.36 461.48 318.36ZM475.83 348.08L475.83 348.08Q475.83 348.51 474.83 349.36Q473.83 350.20 473.08 350.20L473.08 350.20L460.52 350.20Q461.89 344.42 463.48 331.17Q465.08 317.92 465.86 309.01L465.86 309.01Q465.86 308.61 466.86 307.78Q467.86 306.95 468.58 306.95L468.58 306.95L481.73 306.95Q480.08 313.83 478.30 326.78Q476.52 339.73 475.83 348.08Z" data-element="company-name" data-text-path="" data-text="MotivRed" data-font-family="Emblema One" fill="#f4f4f4" fill-opacity="1"></path><path d="M231.83 394.07L233.50 396.02Q232.81 397.26 231.53 398.34Q230.25 399.42 228.56 400.07Q226.88 400.72 224.95 400.72L224.95 400.72Q221.81 400.72 219.45 399.29Q217.09 397.87 215.76 395.20Q214.44 392.54 214.44 388.88L214.44 388.88Q214.44 385.37 215.76 382.73Q217.09 380.10 219.45 378.64Q221.81 377.19 224.92 377.19L224.92 377.19Q227.63 377.19 229.73 378.08Q231.83 378.98 232.81 380.30L232.81 380.30L232.01 385.51L230.10 385.51Q229.64 382.43 228.49 381.42L228.49 381.42Q227.80 380.82 226.92 380.54Q226.04 380.27 224.72 380.27L224.72 380.27Q222.96 380.27 221.54 381.21Q220.11 382.14 219.28 384.06Q218.44 385.97 218.44 388.88L218.44 388.88Q218.44 391.53 219.36 393.45Q220.28 395.36 221.84 396.38Q223.39 397.41 225.30 397.41L225.30 397.41Q226.65 397.41 227.89 396.93Q229.13 396.46 230.15 395.69Q231.17 394.93 231.83 394.07L231.83 394.07ZM243.32 400.52L243.32 400.52Q240.82 400.52 238.99 399.50Q237.16 398.47 236.15 396.60Q235.14 394.73 235.14 392.22L235.14 392.22Q235.14 389.69 236.15 387.82Q237.16 385.94 238.99 384.91Q240.82 383.87 243.32 383.87L243.32 383.87Q245.86 383.87 247.69 384.91Q249.52 385.94 250.50 387.82Q251.47 389.69 251.47 392.22L251.47 392.22Q251.47 394.73 250.50 396.60Q249.52 398.47 247.69 399.50Q245.86 400.52 243.32 400.52ZM243.78 397.87L243.78 397.87Q245.60 397.72 246.61 396.33Q247.62 394.93 247.62 392.74L247.62 392.74Q247.62 392.51 247.62 392.30Q247.62 392.08 247.59 391.85L247.59 391.85Q247.38 389.37 246.22 387.96Q245.05 386.55 243.27 386.55L243.27 386.55Q243.15 386.55 243.06 386.56Q242.98 386.58 242.86 386.58L242.86 386.58Q241.11 386.69 240.06 388.10Q239.00 389.52 239.00 391.73L239.00 391.73Q239.00 391.94 239.00 392.15Q239.00 392.37 239.03 392.60L239.03 392.60Q239.23 395.05 240.44 396.47Q241.65 397.90 243.41 397.90L243.41 397.90Q243.50 397.90 243.60 397.88Q243.70 397.87 243.78 397.87ZM270.63 399.60L267.86 400.49Q267.14 399.91 266.75 399.38Q266.36 398.85 266.10 398.10L266.10 398.10Q265.21 399.45 263.90 399.98Q262.59 400.52 261.18 400.52L261.18 400.52Q259.05 400.52 257.39 399.58Q255.74 398.65 254.79 396.79Q253.84 394.93 253.84 392.22L253.84 392.22Q253.84 389.49 254.84 387.63Q255.85 385.77 257.51 384.82Q259.16 383.87 261.12 383.87L261.12 383.87Q262.65 383.87 263.69 384.27Q264.72 384.68 265.44 385.69L265.44 385.69L265.44 377.16L269.53 377.74L268.96 395.48Q268.93 396.60 269.37 397.70Q269.82 398.79 270.63 399.60L270.63 399.60ZM265.56 393.98L265.56 389.00Q265.10 388.08 264.20 387.37Q263.31 386.66 262.04 386.66L262.04 386.66Q260.95 386.66 259.91 387.20Q258.88 387.73 258.20 388.95Q257.52 390.18 257.52 392.25L257.52 392.25Q257.52 394.30 258.17 395.49Q258.82 396.69 259.87 397.21Q260.92 397.72 262.07 397.72L262.07 397.72Q263.05 397.72 263.83 397.22Q264.61 396.72 265.08 395.85Q265.56 394.99 265.56 393.98L265.56 393.98ZM286.55 395.42L287.59 397.38Q286.75 398.50 285.82 399.19Q284.88 399.88 283.67 400.20Q282.46 400.52 280.71 400.52L280.71 400.52Q278.20 400.52 276.42 399.41Q274.63 398.30 273.68 396.41Q272.73 394.53 272.73 392.19L272.73 392.19Q272.73 389.83 273.71 387.95Q274.69 386.06 276.46 384.97Q278.23 383.87 280.59 383.87L280.59 383.87Q282.90 383.87 284.55 384.92Q286.21 385.97 287.10 387.92Q287.99 389.86 287.99 392.54L287.99 392.54L287.99 393.03L277.57 393.03L276.93 390.78L284.02 390.21Q283.93 388.68 283.17 387.72Q282.41 386.75 280.74 386.75L280.74 386.75Q278.81 386.75 277.55 388.18Q276.30 389.60 276.30 392.22L276.30 392.22Q276.30 394.10 277.01 395.32Q277.71 396.54 278.79 397.13Q279.87 397.72 280.97 397.72L280.97 397.72Q282.81 397.72 284.26 397.10Q285.72 396.49 286.55 395.42L286.55 395.42ZM317.97 394.07L319.64 396.02Q318.95 397.26 317.67 398.34Q316.39 399.42 314.70 400.07Q313.02 400.72 311.09 400.72L311.09 400.72Q307.95 400.72 305.59 399.29Q303.23 397.87 301.90 395.20Q300.58 392.54 300.58 388.88L300.58 388.88Q300.58 385.37 301.90 382.73Q303.23 380.10 305.59 378.64Q307.95 377.19 311.06 377.19L311.06 377.19Q313.77 377.19 315.87 378.08Q317.97 378.98 318.95 380.30L318.95 380.30L318.15 385.51L316.25 385.51Q315.78 382.43 314.63 381.42L314.63 381.42Q313.94 380.82 313.06 380.54Q312.18 380.27 310.86 380.27L310.86 380.27Q309.10 380.27 307.68 381.21Q306.25 382.14 305.42 384.06Q304.58 385.97 304.58 388.88L304.58 388.88Q304.58 391.53 305.50 393.45Q306.42 395.36 307.98 396.38Q309.54 397.41 311.44 397.41L311.44 397.41Q312.79 397.41 314.03 396.93Q315.27 396.46 316.29 395.69Q317.31 394.93 317.97 394.07L317.97 394.07ZM326.24 400.20L322.73 400.60L322.15 383.73L326.24 384.22L326.24 385.86Q326.79 385.17 327.35 384.74Q327.91 384.30 328.77 384.10Q329.64 383.90 331.05 383.87L331.05 383.87L331.71 387.38Q330.76 387.21 329.98 387.21L329.98 387.21Q327.07 387.21 326.24 389.54L326.24 389.54L326.24 400.20ZM348.90 399.60L346.14 400.49Q345.42 399.91 345.03 399.38Q344.64 398.85 344.38 398.10L344.38 398.10Q343.86 398.99 342.91 399.52Q341.96 400.06 340.80 400.29Q339.63 400.52 338.42 400.52L338.42 400.52Q335.97 400.52 334.74 399.39Q333.50 398.27 333.44 396.26L333.44 396.26L333.44 396.14Q333.44 393.84 334.91 392.51Q336.38 391.19 339.00 390.61L339.00 390.61Q340.78 390.21 342.01 389.73Q343.23 389.26 343.23 388.65L343.23 388.65Q343.23 386.72 340.21 386.72L340.21 386.72Q338.68 386.72 337.24 387.31Q335.80 387.90 334.88 388.71L334.88 388.71L333.73 386.64Q334.74 385.31 336.51 384.59Q338.28 383.87 340.52 383.87L340.52 383.87Q343.86 383.87 345.55 385.10Q347.23 386.32 347.23 388.94L347.23 388.94L347.23 395.48Q347.23 396.60 347.67 397.70Q348.10 398.79 348.90 399.60L348.90 399.60ZM337.41 395.65L337.41 395.85Q337.44 396.63 337.87 397.18Q338.31 397.72 339.17 397.72L339.17 397.72Q340.44 397.72 341.65 397.00Q342.86 396.28 343.32 395.19L343.32 395.19Q343.46 394.87 343.50 394.40Q343.55 393.92 343.55 393.40L343.55 393.40Q343.55 392.66 343.49 392.05Q343.43 391.45 343.43 391.45L343.43 391.45Q342.80 391.94 341.81 392.28Q340.81 392.63 339.72 392.94L339.72 392.94Q338.65 393.23 338.03 393.89Q337.41 394.56 337.41 395.65L337.41 395.65ZM356.36 400.20L352.97 400.58L352.53 386.90L350.40 386.90L349.83 384.68L352.45 384.42L352.39 382.52L352.39 382.20Q352.39 379.41 354.02 378.31Q355.64 377.22 359.22 377.19L359.22 377.19L359.73 379.55Q357.80 379.55 357.08 380.18Q356.36 380.82 356.36 382.60L356.36 382.60L356.36 384.02L359.39 383.70L359.39 386.90L356.36 386.90L356.36 400.20ZM369.87 398.18L369.30 400.52Q365.95 400.52 364.46 399.19Q362.96 397.87 362.96 395.36L362.96 395.36L362.96 386.90L360.77 386.90L360.19 384.68L362.96 384.39L362.96 379.21L367.02 379.78L366.88 383.99L369.76 383.70L369.76 386.90L366.76 386.90L366.47 394.84L366.47 395.13Q366.47 396.54 367.21 397.36Q367.94 398.18 369.87 398.18L369.87 398.18ZM386.09 395.42L387.12 397.38Q386.29 398.50 385.35 399.19Q384.42 399.88 383.21 400.20Q382.00 400.52 380.24 400.52L380.24 400.52Q377.73 400.52 375.95 399.41Q374.16 398.30 373.21 396.41Q372.26 394.53 372.26 392.19L372.26 392.19Q372.26 389.83 373.24 387.95Q374.22 386.06 375.99 384.97Q377.76 383.87 380.12 383.87L380.12 383.87Q382.43 383.87 384.08 384.92Q385.74 385.97 386.63 387.92Q387.53 389.86 387.53 392.54L387.53 392.54L387.53 393.03L377.10 393.03L376.47 390.78L383.55 390.21Q383.46 388.68 382.70 387.72Q381.94 386.75 380.27 386.75L380.27 386.75Q378.34 386.75 377.09 388.18Q375.83 389.60 375.83 392.22L375.83 392.22Q375.83 394.10 376.54 395.32Q377.24 396.54 378.32 397.13Q379.40 397.72 380.50 397.72L380.50 397.72Q382.34 397.72 383.80 397.10Q385.25 396.49 386.09 395.42L386.09 395.42ZM394.84 400.20L391.33 400.60L390.75 383.73L394.84 384.22L394.84 385.86Q395.39 385.17 395.95 384.74Q396.51 384.30 397.38 384.10Q398.24 383.90 399.65 383.87L399.65 383.87L400.31 387.38Q399.36 387.21 398.58 387.21L398.58 387.21Q395.68 387.21 394.84 389.54L394.84 389.54L394.84 400.20ZM415.38 386.46L414.17 388.45Q413.33 387.64 411.83 387.13Q410.34 386.61 408.87 386.61L408.87 386.61Q407.43 386.61 406.82 387.10Q406.22 387.59 406.22 388.25L406.22 388.25Q406.22 388.88 406.95 389.37Q407.69 389.86 409.56 390.24L409.56 390.24Q412.81 390.87 414.32 392.21Q415.84 393.55 415.84 395.74L415.84 395.74Q415.84 398.04 414.09 399.28Q412.35 400.52 408.95 400.52L408.95 400.52Q407.51 400.52 406.09 399.96Q404.66 399.39 403.55 398.57Q402.44 397.75 401.87 397.03L401.87 397.03L403.28 395.16Q403.83 395.74 404.85 396.31Q405.87 396.89 407.04 397.26Q408.20 397.64 409.10 397.64L409.10 397.64Q410.57 397.64 411.24 397.18Q411.92 396.72 411.92 395.88L411.92 395.88Q411.92 394.96 410.95 394.38Q409.99 393.81 407.94 393.38L407.94 393.38Q404.98 392.77 403.68 391.50Q402.39 390.24 402.39 388.48L402.39 388.48Q402.39 386.49 404.09 385.18Q405.78 383.87 408.92 383.87L408.92 383.87Q410.39 383.87 411.70 384.26Q413.01 384.65 413.98 385.25Q414.94 385.86 415.38 386.46L415.38 386.46Z" data-element="slogan" data-text-path="" data-text="Code Crafters" data-font-family="JP RocknRoll One" fill="#f4f4f4" fill-opacity="1"></path></g></g></svg>