<svg xmlns="http://www.w3.org/2000/svg" xmlns:xlink="http://www.w3.org/1999/xlink" width="630" zoomAndPan="magnify" viewBox="0 0 472.5 322.499991" height="430" preserveAspectRatio="xMidYMid meet" version="1.0"><path fill="#f4f4f4" d="M 314.070312 101.519531 L 313.839844 96.863281 C 313.753906 95.457031 313.273438 94.195312 312.375 93.292969 C 311.457031 92.394531 310.277344 91.839844 309.015625 91.75 L 308.242188 86.6875 L 307.816406 85.03125 C 310.105469 84.007812 311.332031 81.273438 310.613281 78.527344 C 310.121094 77.050781 309.5625 75.597656 309.035156 74.132812 C 308.527344 72.816406 307.710938 71.746094 306.566406 71.160156 C 305.425781 70.566406 304.132812 70.386719 302.902344 70.675781 C 301.878906 68.644531 301.03125 66.519531 299.761719 64.621094 C 301.632812 62.972656 302.046875 59.960938 300.503906 57.582031 L 297.714844 53.84375 C 296.085938 51.507812 292.957031 51.097656 290.824219 52.359375 L 288.527344 49.835938 C 287.757812 48.996094 286.863281 48.28125 286.039062 47.5 C 286.691406 46.421875 286.90625 45.152344 286.679688 43.902344 C 286.441406 42.671875 285.835938 41.375 284.675781 40.570312 L 280.9375 37.773438 C 279.835938 36.894531 278.449219 36.628906 277.1875 36.769531 C 275.921875 36.90625 274.757812 37.46875 273.90625 38.394531 C 272.929688 37.8125 271.972656 37.195312 270.976562 36.640625 L 267.898438 35.160156 C 268.207031 33.933594 268.039062 32.652344 267.460938 31.515625 C 267.171875 30.945312 266.78125 30.414062 266.300781 29.949219 C 265.800781 29.539062 265.207031 29.195312 264.546875 28.953125 L 260.160156 27.347656 C 257.464844 26.460938 254.667969 27.800781 253.621094 30.039062 C 252.511719 29.785156 251.425781 29.414062 250.300781 29.25 L 246.921875 28.734375 C 246.851562 27.476562 246.316406 26.296875 245.425781 25.378906 C 244.980469 24.925781 244.449219 24.511719 243.851562 24.238281 C 243.253906 23.992188 242.589844 23.839844 241.886719 23.804688 L 237.226562 23.570312 C 235.820312 23.441406 234.53125 24.085938 233.5625 24.875 C 232.59375 25.699219 231.953125 26.816406 231.773438 28.0625 C 230.636719 28.128906 229.496094 28.164062 228.363281 28.253906 L 224.988281 28.769531 C 224.550781 27.585938 223.691406 26.621094 222.574219 26.007812 C 221.457031 25.386719 220.078125 25.117188 218.71875 25.511719 L 214.199219 26.675781 C 212.816406 26.980469 211.757812 27.933594 211.074219 28.992188 C 210.390625 30.066406 210.109375 31.324219 210.304688 32.570312 C 209.238281 32.972656 208.152344 33.324219 207.105469 33.773438 L 204.03125 35.253906 C 203.261719 34.253906 202.15625 33.582031 200.902344 33.328125 C 200.28125 33.203125 199.613281 33.167969 198.960938 33.265625 C 198.324219 33.402344 197.6875 33.648438 197.085938 34.015625 L 193.097656 36.441406 C 190.742188 38.015625 190.023438 41.007812 191.125 43.230469 C 189.246094 44.523438 187.617188 46.125 185.925781 47.648438 C 183.886719 46.171875 180.789062 46.355469 178.9375 48.515625 L 175.8125 51.976562 C 174.105469 54.242188 174.199219 57.238281 175.925781 59.054688 C 175.589844 59.511719 175.234375 59.960938 174.914062 60.429688 L 174.027344 61.886719 L 172.253906 64.808594 C 171.050781 64.40625 169.742188 64.46875 168.554688 64.953125 C 167.4375 65.476562 166.457031 66.433594 165.84375 67.703125 C 165.199219 69.117188 164.425781 70.476562 163.898438 71.941406 C 162.914062 74.605469 163.871094 77.433594 166.050781 78.65625 C 165.292969 80.804688 164.863281 83.050781 164.253906 85.246094 C 163.003906 85.222656 161.714844 85.652344 160.789062 86.484375 C 159.878906 87.3125 159.222656 88.519531 159.007812 89.910156 C 158.816406 91.453125 158.449219 92.980469 158.40625 94.535156 C 158.257812 97.367188 160.007812 99.785156 162.453125 100.308594 C 162.347656 101.449219 162.449219 102.585938 162.5 103.722656 L 162.675781 107.132812 C 161.453125 107.476562 160.410156 108.261719 159.691406 109.335938 C 159.0625 110.394531 158.796875 111.738281 159.007812 113.128906 C 159.261719 114.664062 159.433594 116.214844 159.769531 117.734375 C 160.464844 120.488281 162.859375 122.285156 165.351562 122.066406 C 165.59375 123.179688 165.992188 124.25 166.394531 125.316406 L 167.566406 128.523438 C 166.511719 129.210938 165.730469 130.277344 165.382812 131.507812 C 165.097656 132.703125 165.234375 134.070312 165.84375 135.339844 C 166.554688 136.722656 167.125 138.179688 167.953125 139.5 C 169.421875 141.929688 172.226562 142.945312 174.542969 142 C 175.773438 143.914062 177.230469 145.671875 178.566406 147.515625 C 176.871094 149.496094 177.023438 152.429688 178.9375 154.527344 C 179.984375 155.675781 181.007812 156.851562 182.195312 157.859375 C 184.292969 159.773438 187.253906 159.933594 189.1875 158.355469 L 194.65625 162.449219 C 193.652344 164.785156 194.664062 167.546875 197.085938 169.027344 C 197.753906 169.421875 198.40625 169.851562 199.09375 170.214844 L 201.191406 171.230469 C 203.761719 172.4375 206.597656 171.832031 208.027344 169.636719 C 210.167969 170.410156 212.292969 171.230469 214.449219 171.957031 C 214.199219 174.4375 215.964844 176.824219 218.71875 177.527344 C 220.214844 177.972656 221.761719 178.15625 223.300781 178.398438 C 226.109375 178.8125 228.636719 177.371094 229.351562 174.855469 L 236.171875 175.1875 C 236.660156 177.632812 239.050781 179.386719 241.882812 179.238281 C 242.660156 179.191406 243.4375 179.171875 244.210938 179.097656 L 246.519531 178.75 C 249.324219 178.308594 251.3125 176.164062 251.269531 173.601562 L 257.886719 171.902344 C 259.078125 174.109375 261.878906 175.066406 264.546875 174.089844 C 265.269531 173.808594 266.019531 173.578125 266.722656 173.253906 L 268.828125 172.246094 C 271.378906 170.996094 272.65625 168.386719 271.832031 165.902344 C 273.769531 164.703125 275.75 163.578125 277.644531 162.316406 C 279.429688 164.0625 282.40625 164.175781 284.671875 162.472656 C 285.960938 161.589844 287.03125 160.445312 288.203125 159.429688 C 289.246094 158.480469 289.886719 157.265625 290.074219 156.046875 C 290.246094 154.808594 289.90625 153.503906 289.195312 152.472656 L 291.492188 149.945312 C 292.257812 149.105469 293.042969 148.277344 293.691406 147.339844 C 295.914062 148.488281 298.8125 147.738281 300.503906 145.460938 C 301.375 144.171875 302.144531 142.816406 302.964844 141.496094 C 303.679688 140.28125 303.996094 138.96875 303.753906 137.714844 C 303.503906 136.453125 302.84375 135.332031 301.851562 134.546875 C 302.792969 132.476562 303.945312 130.496094 304.632812 128.316406 C 307.09375 128.757812 309.683594 127.199219 310.613281 124.515625 L 311.78125 119.996094 C 312.578125 117.261719 311 114.570312 308.648438 113.6875 C 308.957031 111.433594 309.449219 109.195312 309.464844 106.910156 C 311.953125 106.605469 313.9375 104.355469 314.070312 101.519531 Z M 302.214844 74.410156 C 302.414062 74.960938 303.03125 75.234375 303.589844 75.019531 C 304.148438 74.800781 304.429688 74.160156 304.21875 73.585938 C 304.109375 73.304688 304.019531 73.011719 303.894531 72.734375 C 305.230469 72.652344 306.488281 73.503906 307.003906 74.894531 C 307.519531 76.316406 308.0625 77.730469 308.542969 79.164062 C 308.917969 80.601562 308.355469 82.066406 307.25 82.816406 L 307.023438 81.933594 C 306.871094 81.34375 306.28125 81.003906 305.707031 81.171875 C 305.132812 81.339844 304.785156 81.941406 304.933594 82.511719 L 305.152344 83.367188 C 303.824219 83.257812 302.664062 82.382812 302.328125 81.078125 C 301.886719 79.769531 301.386719 78.480469 300.917969 77.179688 C 300.453125 75.917969 300.914062 74.484375 301.898438 73.582031 C 302.019531 73.851562 302.105469 74.136719 302.214844 74.410156 Z M 290.707031 55.449219 C 290.902344 55.671875 291.109375 55.878906 291.292969 56.109375 C 291.644531 56.582031 292.3125 56.664062 292.78125 56.289062 C 293.25 55.917969 293.332031 55.21875 292.96875 54.730469 C 292.777344 54.496094 292.5625 54.28125 292.363281 54.050781 C 293.65625 53.542969 295.117188 53.976562 296 55.167969 L 298.714844 58.804688 C 299.550781 60.03125 299.402344 61.628906 298.574219 62.667969 L 298.101562 61.886719 C 297.785156 61.367188 297.125 61.214844 296.625 61.542969 C 296.128906 61.875 295.96875 62.554688 296.277344 63.058594 L 296.734375 63.8125 C 295.421875 64.109375 294.101562 63.582031 293.347656 62.472656 L 290.859375 59.148438 C 290.0625 58.066406 290.070312 56.566406 290.707031 55.449219 Z M 274.6875 41.402344 L 275.441406 41.863281 C 275.953125 42.152344 276.613281 42.039062 276.949219 41.550781 C 277.289062 41.054688 277.167969 40.359375 276.636719 40.054688 L 275.859375 39.582031 C 276.917969 38.757812 278.527344 38.617188 279.691406 39.546875 L 283.324219 42.261719 C 284.542969 43.109375 284.828125 44.734375 284.347656 45.960938 L 283.671875 45.351562 C 283.21875 44.941406 282.554688 44.976562 282.164062 45.453125 C 281.796875 45.902344 281.835938 46.609375 282.273438 47.003906 L 282.925781 47.597656 C 281.75 48.273438 280.378906 48.105469 279.265625 47.34375 L 275.945312 44.859375 C 274.894531 44.011719 274.378906 42.699219 274.6875 41.402344 Z M 256.714844 30.835938 L 255.832031 30.609375 C 256.589844 29.542969 258.109375 28.867188 259.492188 29.410156 L 263.753906 30.96875 C 264.449219 31.226562 265.007812 31.667969 265.378906 32.21875 C 265.726562 32.8125 265.894531 33.492188 265.839844 34.167969 L 265.019531 33.773438 C 264.46875 33.507812 263.808594 33.824219 263.585938 34.367188 C 263.355469 34.933594 263.636719 35.507812 264.167969 35.765625 L 264.964844 36.148438 C 264.511719 36.628906 263.929688 36.953125 263.316406 37.082031 C 262.6875 37.253906 262.011719 37.253906 261.378906 37.019531 L 257.484375 35.59375 C 256.234375 35.09375 255.332031 34.0625 255.253906 32.699219 L 256.109375 32.917969 C 256.679688 33.0625 257.285156 32.71875 257.464844 32.148438 C 257.640625 31.574219 257.304688 30.988281 256.714844 30.835938 Z M 237.195312 25.738281 L 241.726562 25.964844 C 242.464844 26.003906 243.128906 26.261719 243.644531 26.675781 C 244.15625 27.117188 244.511719 27.734375 244.664062 28.390625 L 243.761719 28.253906 C 243.15625 28.1875 242.621094 28.671875 242.570312 29.261719 C 242.515625 29.863281 242.953125 30.347656 243.539062 30.410156 L 244.414062 30.542969 C 244.121094 31.140625 243.667969 31.605469 243.117188 31.929688 C 242.5625 32.285156 241.917969 32.480469 241.242188 32.449219 L 237.101562 32.238281 C 235.753906 32.105469 234.589844 31.390625 234.113281 30.113281 L 234.996094 30.070312 C 235.582031 30.039062 236.0625 29.53125 236.0625 28.933594 C 236.0625 28.332031 235.574219 27.871094 234.964844 27.902344 L 234.054688 27.949219 C 234.464844 26.707031 235.714844 25.605469 237.195312 25.738281 Z M 214.804688 28.757812 L 219.199219 27.625 C 220.628906 27.210938 222.058594 27.9375 222.726562 29.113281 L 221.828125 29.25 C 221.222656 29.324219 220.847656 29.941406 220.972656 30.527344 C 221.097656 31.113281 221.660156 31.445312 222.246094 31.378906 L 223.121094 31.246094 C 222.90625 32.550781 221.933594 33.582031 220.640625 33.964844 L 216.625 35 C 215.304688 35.277344 213.972656 34.898438 213.144531 33.835938 L 213.972656 33.535156 C 214.523438 33.324219 214.835938 32.707031 214.664062 32.148438 C 214.484375 31.5625 213.875 31.257812 213.304688 31.472656 L 212.449219 31.785156 C 212.46875 30.457031 213.351562 29.074219 214.804688 28.757812 Z M 194.292969 38.246094 L 198.171875 35.890625 C 198.804688 35.507812 199.503906 35.347656 200.160156 35.398438 C 200.835938 35.488281 201.476562 35.789062 201.972656 36.246094 L 201.152344 36.640625 C 200.609375 36.921875 200.4375 37.628906 200.726562 38.140625 C 201.023438 38.671875 201.65625 38.816406 202.179688 38.550781 L 202.976562 38.167969 C 203.070312 38.820312 202.957031 39.46875 202.683594 40.039062 C 202.425781 40.644531 202.003906 41.167969 201.425781 41.519531 L 197.882812 43.671875 C 196.730469 44.367188 195.339844 44.398438 194.226562 43.617188 L 194.933594 43.089844 C 195.40625 42.734375 195.515625 42.046875 195.179688 41.550781 C 194.84375 41.058594 194.175781 40.953125 193.6875 41.316406 L 192.957031 41.863281 C 192.589844 40.597656 193.027344 39.019531 194.292969 38.246094 Z M 177.488281 53.355469 L 180.527344 49.988281 C 181.539062 48.902344 183 48.570312 184.234375 49.183594 C 184.003906 49.378906 183.800781 49.609375 183.597656 49.832031 C 183.1875 50.285156 183.207031 50.984375 183.640625 51.398438 C 184.074219 51.808594 184.746094 51.792969 185.140625 51.355469 C 185.339844 51.136719 185.535156 50.914062 185.761719 50.722656 C 186.300781 51.902344 186.207031 53.425781 185.292969 54.414062 L 182.507812 57.488281 C 181.703125 58.566406 180.296875 58.933594 179.023438 58.53125 L 179.550781 57.824219 C 179.90625 57.351562 179.8125 56.664062 179.347656 56.289062 C 178.878906 55.914062 178.203125 56.007812 177.839844 56.496094 L 177.292969 57.226562 C 176.554688 56.109375 176.597656 54.539062 177.488281 53.355469 Z M 165.902344 72.765625 C 166.417969 71.339844 167.171875 70.019531 167.796875 68.644531 C 168.441406 67.308594 169.796875 66.585938 171.101562 66.78125 L 170.707031 67.601562 C 170.441406 68.148438 170.660156 68.8125 171.199219 69.078125 C 171.734375 69.34375 172.375 69.128906 172.628906 68.601562 L 173.011719 67.804688 C 173.929688 68.800781 174.238281 70.257812 173.652344 71.46875 C 173.085938 72.726562 172.382812 73.929688 171.917969 75.230469 C 171.457031 76.496094 170.214844 77.257812 168.875 77.25 L 169.179688 76.417969 C 169.382812 75.863281 169.09375 75.238281 168.539062 75.019531 C 167.980469 74.796875 167.359375 75.082031 167.152344 75.65625 L 166.835938 76.511719 C 165.804688 75.664062 165.390625 74.15625 165.902344 72.765625 Z M 162.613281 97.121094 L 162.566406 98.027344 C 161.328125 97.523438 160.488281 96.207031 160.566406 94.726562 C 160.605469 93.214844 160.964844 91.730469 161.152344 90.230469 C 161.375 88.765625 162.460938 87.675781 163.765625 87.472656 L 163.628906 88.375 C 163.535156 88.976562 163.941406 89.542969 164.53125 89.640625 C 165.121094 89.734375 165.671875 89.339844 165.761719 88.757812 L 165.894531 87.886719 C 167.066406 88.5625 167.785156 89.863281 167.582031 91.195312 C 167.414062 92.566406 167.070312 93.917969 167.042969 95.304688 C 166.976562 96.648438 166.011719 97.746094 164.730469 98.128906 L 164.777344 97.246094 C 164.804688 96.660156 164.347656 96.144531 163.75 96.097656 C 163.152344 96.054688 162.644531 96.511719 162.613281 97.121094 Z M 166.664062 118.457031 C 166.515625 117.886719 165.921875 117.53125 165.339844 117.664062 C 164.753906 117.792969 164.40625 118.378906 164.554688 118.96875 L 164.78125 119.851562 C 163.449219 119.734375 162.253906 118.722656 161.886719 117.285156 C 161.5625 115.808594 161.402344 114.300781 161.152344 112.808594 C 160.925781 111.34375 161.640625 109.984375 162.828125 109.410156 L 162.964844 110.308594 C 163.054688 110.914062 163.609375 111.335938 164.203125 111.253906 C 164.796875 111.175781 165.203125 110.636719 165.117188 110.054688 L 164.980469 109.179688 C 166.300781 109.484375 167.378906 110.515625 167.582031 111.847656 C 167.8125 113.210938 167.949219 114.589844 168.25 115.941406 C 168.585938 117.242188 167.992188 118.570312 166.882812 119.316406 Z M 175.199219 138.910156 L 174.742188 138.15625 C 174.433594 137.652344 173.765625 137.484375 173.246094 137.785156 C 172.730469 138.082031 172.566406 138.746094 172.882812 139.269531 L 173.355469 140.046875 C 172.050781 140.328125 170.613281 139.710938 169.847656 138.441406 C 169.039062 137.160156 168.488281 135.742188 167.796875 134.398438 C 167.152344 133.058594 167.433594 131.550781 168.398438 130.648438 L 168.792969 131.46875 C 169.058594 132.019531 169.710938 132.261719 170.253906 132.007812 C 170.796875 131.753906 171.027344 131.117188 170.773438 130.585938 L 170.390625 129.789062 C 171.738281 129.691406 173.070312 130.359375 173.652344 131.570312 C 174.285156 132.800781 174.777344 134.105469 175.523438 135.269531 C 176.222656 136.421875 176.042969 137.871094 175.199219 138.910156 Z M 188.925781 155.195312 L 188.273438 154.597656 C 187.835938 154.203125 187.152344 154.234375 186.742188 154.671875 C 186.335938 155.109375 186.371094 155.796875 186.820312 156.207031 L 187.496094 156.820312 C 186.332031 157.46875 184.789062 157.292969 183.695312 156.292969 C 182.535156 155.316406 181.542969 154.171875 180.527344 153.050781 C 179.527344 151.953125 179.363281 150.421875 180.023438 149.273438 L 180.632812 149.945312 C 181.042969 150.398438 181.734375 150.4375 182.179688 150.035156 C 182.625 149.632812 182.660156 148.957031 182.265625 148.519531 L 181.671875 147.867188 C 182.929688 147.375 184.386719 147.632812 185.292969 148.628906 C 186.222656 149.652344 187.121094 150.707031 188.1875 151.59375 C 189.1875 152.5 189.429688 153.949219 188.925781 155.195312 Z M 206.035156 166.347656 C 205.503906 166.089844 204.859375 166.320312 204.597656 166.859375 C 204.335938 167.398438 204.570312 168.046875 205.121094 168.3125 L 205.941406 168.707031 C 205.023438 169.664062 203.5 169.9375 202.164062 169.292969 L 200.121094 168.308594 C 199.453125 167.953125 198.824219 167.535156 198.171875 167.152344 C 196.902344 166.382812 196.296875 164.953125 196.59375 163.65625 L 197.371094 164.128906 C 197.894531 164.449219 198.566406 164.289062 198.871094 163.773438 C 199.175781 163.257812 199.015625 162.59375 198.515625 162.289062 L 197.757812 161.828125 C 198.8125 160.996094 200.277344 160.824219 201.425781 161.523438 C 202.023438 161.875 202.597656 162.261719 203.207031 162.582031 L 205.078125 163.480469 C 206.289062 164.0625 206.945312 165.386719 206.828125 166.730469 Z M 226.183594 174.453125 L 227.085938 174.59375 C 226.492188 175.777344 225.121094 176.484375 223.652344 176.261719 C 222.160156 176.027344 220.65625 175.851562 219.199219 175.414062 C 217.761719 175.046875 216.765625 173.855469 216.664062 172.527344 L 217.546875 172.753906 C 218.136719 172.90625 218.730469 172.554688 218.871094 171.972656 C 219.011719 171.390625 218.660156 170.800781 218.089844 170.65625 L 217.234375 170.433594 C 217.996094 169.328125 219.339844 168.738281 220.640625 169.074219 C 221.96875 169.480469 223.347656 169.632812 224.710938 169.847656 C 226.042969 170.046875 227.0625 171.121094 227.347656 172.441406 L 226.472656 172.308594 C 225.890625 172.21875 225.347656 172.625 225.257812 173.21875 C 225.164062 173.808594 225.582031 174.363281 226.183594 174.453125 Z M 246.230469 176.601562 L 243.988281 176.941406 C 243.238281 177.015625 242.480469 177.03125 241.726562 177.078125 C 240.242188 177.152344 238.941406 176.3125 238.453125 175.074219 L 239.363281 175.027344 C 239.972656 174.996094 240.4375 174.488281 240.402344 173.890625 C 240.363281 173.292969 239.855469 172.832031 239.269531 172.863281 L 238.382812 172.90625 C 238.789062 171.625 239.898438 170.660156 241.242188 170.59375 C 241.933594 170.550781 242.628906 170.542969 243.316406 170.476562 L 245.367188 170.160156 C 246.695312 169.957031 247.980469 170.675781 248.640625 171.851562 L 247.769531 171.984375 C 247.1875 172.074219 246.785156 172.625 246.871094 173.21875 C 246.957031 173.808594 247.519531 174.214844 248.121094 174.121094 L 249.019531 173.984375 C 248.800781 175.292969 247.699219 176.378906 246.230469 176.601562 Z M 267.917969 170.277344 L 265.871094 171.261719 C 265.1875 171.578125 264.460938 171.796875 263.753906 172.070312 C 262.359375 172.582031 260.867188 172.164062 260.035156 171.125 L 260.890625 170.8125 C 261.464844 170.601562 261.757812 169.980469 261.546875 169.417969 C 261.335938 168.859375 260.714844 168.570312 260.160156 168.773438 L 259.332031 169.074219 C 259.339844 167.730469 260.113281 166.480469 261.378906 166.019531 C 262.023438 165.769531 262.6875 165.574219 263.316406 165.28125 L 265.179688 164.378906 C 266.394531 163.796875 267.835938 164.109375 268.816406 165.035156 L 268.019531 165.417969 C 267.488281 165.671875 267.269531 166.320312 267.527344 166.859375 C 267.785156 167.398438 268.441406 167.621094 268.992188 167.355469 L 269.8125 166.960938 C 269.988281 168.273438 269.253906 169.636719 267.917969 170.277344 Z M 286.753906 157.820312 C 285.613281 158.804688 284.574219 159.921875 283.324219 160.777344 C 282.136719 161.667969 280.578125 161.699219 279.476562 160.949219 L 280.207031 160.40625 C 280.695312 160.039062 280.792969 159.359375 280.425781 158.886719 C 280.058594 158.414062 279.375 158.320312 278.90625 158.671875 L 278.195312 159.199219 C 277.808594 157.917969 278.1875 156.5 279.265625 155.695312 C 280.417969 154.921875 281.355469 153.890625 282.402344 152.988281 C 283.398438 152.082031 284.878906 151.964844 286.089844 152.566406 L 285.4375 153.160156 C 285 153.554688 284.976562 154.234375 285.382812 154.671875 C 285.789062 155.113281 286.484375 155.136719 286.933594 154.726562 L 287.609375 154.113281 C 288.160156 155.3125 287.851562 156.820312 286.753906 157.820312 Z M 301.105469 140.382812 C 300.308594 141.667969 299.5625 142.988281 298.714844 144.238281 C 297.828125 145.425781 296.339844 145.90625 295.0625 145.511719 L 295.609375 144.78125 C 295.972656 144.292969 295.871094 143.617188 295.382812 143.273438 C 294.890625 142.929688 294.207031 143.035156 293.855469 143.503906 L 293.324219 144.214844 C 292.582031 143.101562 292.539062 141.648438 293.347656 140.570312 C 294.121094 139.425781 294.796875 138.214844 295.527344 137.042969 C 296.222656 135.890625 297.621094 135.351562 298.953125 135.570312 L 298.496094 136.328125 C 298.191406 136.832031 298.363281 137.484375 298.878906 137.785156 C 299.398438 138.085938 300.074219 137.90625 300.390625 137.386719 L 300.859375 136.605469 C 301.742188 137.589844 301.875 139.113281 301.105469 140.382812 Z M 299.914062 133.574219 C 298.703125 133.242188 297.457031 133.335938 296.390625 133.769531 C 295.316406 134.199219 294.28125 134.886719 293.667969 135.929688 C 292.957031 137.066406 292.308594 138.238281 291.558594 139.347656 C 290.113281 141.265625 290.375 144.035156 292 145.988281 C 291.371094 146.902344 290.605469 147.703125 289.863281 148.519531 L 287.632812 150.972656 C 286.5625 150.292969 285.378906 150.054688 284.195312 150.113281 C 282.992188 150.15625 281.847656 150.5625 280.953125 151.378906 C 279.9375 152.25 279.03125 153.257812 277.914062 154.003906 C 275.988281 155.4375 275.441406 158.179688 276.421875 160.53125 C 274.582031 161.753906 272.65625 162.84375 270.78125 164.011719 C 269.171875 162.191406 266.417969 161.351562 264.269531 162.414062 L 262.460938 163.289062 C 261.855469 163.574219 261.210938 163.761719 260.585938 164.003906 C 258.332031 164.820312 257.011719 167.308594 257.246094 169.832031 L 250.828125 171.480469 C 249.820312 169.214844 247.445312 167.628906 245.078125 168.011719 L 243.09375 168.320312 C 242.425781 168.382812 241.753906 168.390625 241.085938 168.433594 C 238.683594 168.546875 236.6875 170.523438 236.171875 173.019531 L 229.546875 172.695312 C 229.242188 170.289062 227.4375 168.050781 225.066406 167.707031 C 223.742188 167.5 222.40625 167.359375 221.121094 166.960938 C 218.800781 166.359375 216.3125 167.652344 215.085938 169.882812 C 212.996094 169.179688 210.933594 168.378906 208.851562 167.632812 C 209.273438 165.246094 208.222656 162.554688 206.050781 161.542969 L 204.238281 160.675781 C 203.644531 160.363281 203.089844 159.988281 202.511719 159.648438 C 200.46875 158.386719 197.683594 158.929688 195.878906 160.660156 L 190.566406 156.6875 C 191.753906 154.433594 191.464844 151.640625 189.6875 150.027344 C 188.652344 149.167969 187.78125 148.144531 186.882812 147.152344 C 185.261719 145.378906 182.441406 145.078125 180.257812 146.160156 C 178.964844 144.371094 177.546875 142.664062 176.351562 140.808594 C 178.144531 139.003906 178.667969 136.261719 177.414062 134.214844 C 176.691406 133.085938 176.21875 131.820312 175.605469 130.632812 C 175.082031 129.539062 174.171875 128.734375 173.074219 128.242188 C 172.039062 127.722656 170.824219 127.507812 169.582031 127.726562 L 168.445312 124.613281 C 168.054688 123.582031 167.667969 122.546875 167.433594 121.460938 C 169.679688 120.269531 170.976562 117.8125 170.371094 115.492188 C 170.082031 114.183594 169.949219 112.847656 169.726562 111.527344 C 169.542969 110.328125 168.90625 109.292969 168.003906 108.492188 C 167.191406 107.6875 166.078125 107.125 164.835938 106.96875 L 164.667969 103.65625 C 164.617188 102.554688 164.515625 101.449219 164.621094 100.347656 C 167.117188 99.867188 169.089844 97.894531 169.203125 95.496094 C 169.226562 94.152344 169.566406 92.84375 169.726562 91.515625 C 169.910156 90.316406 169.613281 89.140625 168.984375 88.113281 C 168.367188 87.089844 167.53125 86.238281 166.371094 85.722656 C 166.964844 83.59375 167.375 81.414062 168.113281 79.328125 C 170.640625 79.609375 173.109375 78.308594 173.925781 76.054688 C 174.371094 74.792969 175.058594 73.628906 175.605469 72.410156 C 176.132812 71.320312 176.195312 70.105469 175.898438 68.9375 C 175.671875 67.8125 175.074219 66.71875 174.128906 65.890625 L 175.851562 63.054688 L 176.710938 61.640625 C 177.023438 61.183594 177.367188 60.75 177.695312 60.304688 C 180.023438 61.316406 182.75 60.792969 184.179688 58.863281 L 186.882812 55.886719 C 188.433594 54.046875 188.707031 51.394531 187.402344 49.234375 C 189.046875 47.757812 190.621094 46.199219 192.453125 44.945312 C 194.394531 46.617188 197.085938 46.8125 199.078125 45.476562 L 202.511719 43.394531 C 203.03125 43.078125 203.46875 42.675781 203.828125 42.203125 C 204.207031 41.769531 204.519531 41.289062 204.738281 40.75 C 205.179688 39.679688 205.289062 38.425781 204.976562 37.203125 L 207.960938 35.765625 C 208.976562 35.332031 210.03125 34.992188 211.0625 34.601562 C 211.730469 35.671875 212.714844 36.464844 213.796875 36.894531 C 214.882812 37.332031 216.042969 37.324219 217.234375 37.078125 L 221.121094 36.078125 C 222.285156 35.726562 223.292969 35.121094 224.035156 34.234375 C 224.773438 33.339844 225.25 32.171875 225.3125 30.910156 L 228.589844 30.410156 C 229.6875 30.320312 230.796875 30.292969 231.898438 30.226562 C 232.21875 31.449219 232.925781 32.5 233.832031 33.226562 C 234.746094 33.988281 235.859375 34.28125 237.070312 34.40625 L 241.085938 34.609375 C 241.691406 34.640625 242.28125 34.550781 242.84375 34.363281 C 243.402344 34.207031 243.929688 33.996094 244.414062 33.671875 C 245.382812 33.039062 246.179688 32.0625 246.605469 30.878906 L 249.882812 31.378906 C 250.976562 31.535156 252.03125 31.898438 253.105469 32.144531 C 253.011719 34.714844 254.542969 36.902344 256.816406 37.65625 L 260.585938 39.039062 C 261.15625 39.246094 261.746094 39.335938 262.335938 39.324219 C 262.90625 39.363281 263.480469 39.296875 264.039062 39.136719 C 265.152344 38.816406 266.203125 38.117188 266.960938 37.113281 L 269.949219 38.550781 C 270.914062 39.085938 271.84375 39.6875 272.792969 40.253906 C 272.367188 41.441406 272.363281 42.707031 272.703125 43.816406 C 273.046875 44.929688 273.753906 45.863281 274.695312 46.632812 L 277.914062 49.039062 C 278.921875 49.71875 279.984375 50.179688 281.164062 50.175781 C 282.328125 50.191406 283.542969 49.828125 284.566406 49.089844 C 285.367188 49.847656 286.242188 50.539062 286.984375 51.355469 L 289.214844 53.808594 C 287.691406 55.875 287.789062 58.488281 289.148438 60.476562 L 291.558594 63.691406 C 292.855469 65.710938 295.46875 66.511719 297.886719 65.707031 C 299.125 67.546875 299.941406 69.617188 300.9375 71.585938 C 299.921875 72.328125 299.222656 73.367188 298.894531 74.46875 C 298.574219 75.570312 298.457031 76.8125 298.890625 77.941406 C 299.34375 79.203125 299.828125 80.449219 300.257812 81.714844 C 300.847656 84.042969 303.167969 85.5625 305.707031 85.515625 L 306.117188 87.121094 L 306.367188 88.757812 L 306.867188 92.035156 C 305.679688 92.445312 304.703125 93.226562 304.070312 94.179688 C 303.414062 95.140625 302.949219 96.296875 303.027344 97.503906 L 303.234375 101.519531 C 303.105469 103.921875 304.867188 106.058594 307.304688 106.753906 C 307.296875 108.972656 306.808594 111.140625 306.511719 113.332031 C 303.984375 113.4375 301.949219 115.128906 301.253906 117.433594 L 300.257812 121.324219 C 299.460938 123.585938 300.488281 126.136719 302.617188 127.527344 C 301.953125 129.640625 300.828125 131.5625 299.914062 133.574219 Z M 309.675781 119.484375 L 308.542969 123.878906 C 308.074219 125.285156 306.753906 126.171875 305.421875 126.171875 L 305.734375 125.316406 C 305.941406 124.742188 305.652344 124.128906 305.082031 123.945312 C 304.511719 123.761719 303.882812 124.0625 303.683594 124.613281 L 303.378906 125.445312 C 302.335938 124.601562 301.898438 123.238281 302.328125 121.964844 L 303.359375 117.945312 C 303.675781 116.640625 304.914062 115.726562 306.175781 115.523438 C 306.144531 115.816406 306.078125 116.101562 305.996094 116.386719 C 305.851562 116.957031 306.203125 117.527344 306.789062 117.664062 C 307.371094 117.796875 307.964844 117.425781 308.117188 116.835938 C 308.199219 116.542969 308.265625 116.246094 308.304688 115.945312 C 309.511719 116.640625 310.027344 118.042969 309.675781 119.484375 Z M 308.597656 102.605469 C 308 102.597656 307.488281 103.070312 307.460938 103.65625 L 307.414062 104.539062 C 306.175781 104.042969 305.328125 102.867188 305.402344 101.519531 L 305.1875 97.375 C 305.121094 96.03125 305.96875 94.796875 307.199219 94.226562 L 307.242188 95.109375 C 307.273438 95.699219 307.78125 96.140625 308.378906 96.097656 C 308.976562 96.058594 309.433594 95.527344 309.402344 94.917969 L 309.355469 94.007812 C 310.632812 94.328125 311.601562 95.511719 311.679688 96.992188 L 311.902344 101.519531 C 311.832031 103.003906 310.863281 104.238281 309.578125 104.632812 L 309.625 103.722656 C 309.65625 103.113281 309.195312 102.613281 308.597656 102.605469 Z M 308.597656 102.605469 " fill-opacity="1" fill-rule="nonzero"/><path fill="#f4f4f4" d="M 271.175781 120.710938 C 273.652344 116.421875 272.148438 110.320312 266.941406 103.523438 C 266.207031 102.566406 265.410156 101.605469 264.554688 100.652344 C 265.410156 99.699219 266.207031 98.738281 266.941406 97.78125 C 269.011719 95.078125 270.492188 92.488281 271.375 90.074219 C 270.972656 90.128906 270.558594 90.160156 270.140625 90.160156 C 269.421875 90.160156 268.722656 90.074219 268.050781 89.914062 C 267.253906 91.765625 266.046875 93.769531 264.441406 95.867188 C 263.804688 96.695312 263.117188 97.527344 262.382812 98.355469 C 259.792969 95.761719 256.796875 93.21875 253.492188 90.808594 C 253.050781 86.675781 252.339844 82.816406 251.394531 79.328125 C 252.480469 79.105469 253.542969 78.925781 254.582031 78.789062 C 257.199219 78.445312 259.539062 78.402344 261.542969 78.640625 C 261.863281 77.550781 262.386719 76.550781 263.070312 75.679688 C 260.539062 75.238281 257.550781 75.222656 254.171875 75.667969 C 252.976562 75.824219 251.746094 76.035156 250.492188 76.296875 C 247.308594 66.660156 242.242188 60.535156 236.433594 60.535156 C 230.625 60.535156 225.558594 66.65625 222.375 76.289062 C 220.902344 75.984375 219.460938 75.746094 218.070312 75.589844 C 210.773438 74.761719 205.351562 76.09375 202.570312 79.351562 C 203.886719 79.386719 205.128906 79.707031 206.246094 80.25 C 207.988281 79.078125 210.570312 78.46875 213.871094 78.46875 C 216.1875 78.46875 218.75 78.761719 221.46875 79.324219 C 220.527344 82.8125 219.8125 86.675781 219.371094 90.804688 C 216.066406 93.214844 213.070312 95.761719 210.480469 98.355469 C 209.746094 97.527344 209.058594 96.695312 208.421875 95.863281 C 208.269531 95.667969 208.125 95.46875 207.980469 95.273438 C 207.160156 95.941406 206.222656 96.464844 205.203125 96.808594 C 205.433594 97.132812 205.671875 97.457031 205.921875 97.78125 C 206.65625 98.738281 207.453125 99.699219 208.308594 100.652344 C 207.453125 101.605469 206.65625 102.566406 205.921875 103.523438 C 200.714844 110.320312 199.214844 116.421875 201.6875 120.710938 C 203.671875 124.148438 207.921875 125.964844 213.976562 125.964844 C 213.976562 125.964844 213.976562 125.964844 213.980469 125.964844 C 215.453125 125.964844 217.039062 125.855469 218.691406 125.636719 C 219.890625 125.480469 221.117188 125.269531 222.375 125.007812 C 225.042969 133.089844 229.039062 138.703125 233.6875 140.300781 C 233.03125 139.089844 232.648438 137.710938 232.617188 136.246094 C 229.796875 134.1875 227.300781 129.929688 225.4375 124.277344 C 228.984375 123.332031 232.6875 122.007812 236.433594 120.347656 C 240.175781 122.007812 243.878906 123.332031 247.425781 124.277344 C 246.964844 125.675781 246.464844 126.988281 245.929688 128.203125 C 246.875 128.730469 247.714844 129.421875 248.414062 130.242188 C 249.171875 128.644531 249.867188 126.894531 250.488281 125.007812 C 251.746094 125.269531 252.976562 125.480469 254.171875 125.636719 C 255.828125 125.855469 257.410156 125.964844 258.882812 125.964844 C 264.941406 125.964844 269.191406 124.148438 271.175781 120.710938 Z M 219.023438 95.015625 C 218.914062 96.851562 218.859375 98.734375 218.859375 100.652344 C 218.859375 102.570312 218.914062 104.453125 219.023438 106.289062 C 216.6875 104.460938 214.542969 102.570312 212.636719 100.652344 C 214.542969 98.734375 216.6875 96.84375 219.023438 95.015625 Z M 218.28125 122.515625 C 211.242188 123.4375 206.1875 122.203125 204.417969 119.136719 C 202.644531 116.066406 204.105469 111.074219 208.421875 105.4375 C 209.058594 104.609375 209.746094 103.777344 210.480469 102.949219 C 213.070312 105.542969 216.066406 108.089844 219.371094 110.5 C 219.8125 114.628906 220.527344 118.488281 221.46875 121.976562 C 220.382812 122.199219 219.320312 122.378906 218.28125 122.515625 Z M 250.007812 88.386719 C 248.460938 87.371094 246.863281 86.382812 245.21875 85.433594 C 243.570312 84.480469 241.910156 83.585938 240.253906 82.757812 C 243.007812 81.648438 245.714844 80.738281 248.328125 80.046875 C 249.015625 82.625 249.585938 85.425781 250.007812 88.386719 Z M 236.433594 63.683594 C 240.78125 63.683594 244.757812 68.925781 247.425781 77.027344 C 243.882812 77.972656 240.179688 79.296875 236.441406 80.953125 C 232.6875 79.285156 228.980469 77.960938 225.441406 77.019531 C 228.109375 68.921875 232.082031 63.683594 236.433594 63.683594 Z M 224.535156 80.054688 C 227.136719 80.746094 229.847656 81.65625 232.601562 82.765625 C 230.945312 83.59375 229.289062 84.484375 227.644531 85.433594 C 226 86.382812 224.402344 87.371094 222.859375 88.386719 C 223.277344 85.425781 223.847656 82.628906 224.535156 80.054688 Z M 224.539062 121.257812 C 223.847656 118.679688 223.28125 115.878906 222.859375 112.917969 C 224.402344 113.9375 226 114.921875 227.644531 115.871094 C 229.292969 116.824219 230.953125 117.714844 232.613281 118.546875 C 229.859375 119.65625 227.152344 120.566406 224.539062 121.257812 Z M 248.328125 121.257812 C 245.714844 120.566406 243.003906 119.65625 240.253906 118.546875 C 241.910156 117.714844 243.570312 116.824219 245.21875 115.871094 C 246.863281 114.921875 248.460938 113.933594 250.007812 112.917969 C 249.585938 115.878906 249.015625 118.679688 248.328125 121.257812 Z M 250.488281 108.777344 C 248.328125 110.300781 246.039062 111.761719 243.644531 113.144531 C 241.25 114.527344 238.832031 115.78125 236.433594 116.894531 C 234.03125 115.78125 231.613281 114.527344 229.21875 113.144531 C 226.828125 111.761719 224.535156 110.300781 222.375 108.777344 C 222.136719 106.152344 222.007812 103.433594 222.007812 100.652344 C 222.007812 97.871094 222.136719 95.152344 222.375 92.527344 C 224.535156 91.003906 226.828125 89.542969 229.21875 88.160156 C 231.613281 86.777344 234.023438 85.527344 236.421875 84.417969 C 238.832031 85.527344 241.253906 86.78125 243.644531 88.160156 C 246.035156 89.542969 248.328125 91.003906 250.488281 92.527344 C 250.730469 95.152344 250.855469 97.871094 250.855469 100.652344 C 250.855469 103.433594 250.730469 106.152344 250.488281 108.777344 Z M 260.226562 100.652344 C 258.320312 102.570312 256.179688 104.460938 253.839844 106.289062 C 253.949219 104.453125 254.007812 102.570312 254.007812 100.652344 C 254.007812 98.734375 253.949219 96.851562 253.839844 95.015625 C 256.179688 96.84375 258.320312 98.734375 260.226562 100.652344 Z M 268.445312 119.136719 C 266.675781 122.203125 261.621094 123.4375 254.582031 122.515625 C 253.546875 122.378906 252.480469 122.199219 251.394531 121.976562 C 252.339844 118.488281 253.054688 114.628906 253.492188 110.496094 C 256.796875 108.089844 259.792969 105.542969 262.382812 102.949219 C 263.117188 103.777344 263.804688 104.609375 264.441406 105.4375 C 268.757812 111.074219 270.21875 116.066406 268.445312 119.136719 Z M 235.367188 136.046875 C 235.367188 132.617188 238.152344 129.828125 241.582031 129.828125 C 245.007812 129.828125 247.796875 132.617188 247.796875 136.046875 C 247.796875 139.472656 245.007812 142.261719 241.582031 142.261719 C 238.152344 142.261719 235.367188 139.472656 235.367188 136.046875 Z M 270.140625 87.40625 C 266.710938 87.40625 263.921875 84.621094 263.921875 81.191406 C 263.921875 77.765625 266.710938 74.976562 270.140625 74.976562 C 273.566406 74.976562 276.355469 77.765625 276.355469 81.191406 C 276.355469 84.621094 273.566406 87.40625 270.140625 87.40625 Z M 196.109375 88.316406 C 196.109375 84.890625 198.898438 82.101562 202.324219 82.101562 C 205.753906 82.101562 208.539062 84.890625 208.539062 88.316406 C 208.539062 91.742188 205.753906 94.53125 202.324219 94.53125 C 198.898438 94.53125 196.109375 91.742188 196.109375 88.316406 Z M 196.109375 88.316406 " fill-opacity="1" fill-rule="nonzero"/><path fill="#f4f4f4" d="M 112.855469 239.519531 L 98.777344 239.519531 C 98.90625 234.28125 98.972656 228.949219 98.972656 223.519531 C 98.972656 218.097656 98.707031 211.9375 98.175781 205.039062 C 98.898438 203.527344 99.910156 201.230469 101.210938 198.144531 C 101.359375 197.804688 101.742188 197.375 102.355469 196.855469 C 102.972656 196.332031 103.519531 196.070312 103.988281 196.070312 L 113.753906 196.070312 C 113.605469 198.875 113.53125 201.996094 113.53125 205.429688 C 113.53125 216.15625 114.242188 226.816406 115.664062 237.414062 C 115.664062 237.6875 115.324219 238.105469 114.644531 238.671875 C 113.960938 239.234375 113.367188 239.519531 112.855469 239.519531 Z M 90.960938 237.863281 C 90.8125 238.175781 90.484375 238.53125 89.972656 238.925781 C 89.460938 239.320312 89.054688 239.519531 88.757812 239.519531 L 83.679688 239.519531 C 82.785156 234.21875 81.628906 228.644531 80.207031 222.792969 C 78.773438 216.9375 77.359375 212.117188 75.957031 208.328125 C 76.039062 207.839844 76.320312 206.34375 76.804688 203.84375 C 77.28125 201.34375 77.613281 199.445312 77.804688 198.144531 C 77.871094 197.84375 78.234375 197.425781 78.886719 196.886719 C 79.546875 196.34375 80.113281 196.070312 80.582031 196.070312 L 89.871094 196.070312 C 91.339844 204.582031 92.558594 210.335938 93.527344 213.324219 C 94.492188 216.316406 95.382812 218.703125 96.195312 220.496094 C 94.148438 226.597656 92.40625 232.386719 90.960938 237.863281 Z M 75.25 216.441406 C 75.359375 221.757812 75.558594 225.820312 75.84375 228.628906 C 76.128906 231.441406 76.753906 234.371094 77.710938 237.414062 C 77.710938 237.6875 77.367188 238.105469 76.671875 238.671875 C 75.984375 239.234375 75.382812 239.519531 74.871094 239.519531 L 64.6875 239.519531 C 66.792969 234.5 68.441406 230.429688 69.632812 227.308594 C 70.824219 224.191406 71.769531 221.257812 72.472656 218.515625 C 72.472656 218.234375 72.8125 217.820312 73.492188 217.269531 C 74.175781 216.714844 74.761719 216.441406 75.25 216.441406 Z M 146.25 206.734375 C 141.144531 211.625 138.589844 218.230469 138.589844 226.554688 C 138.589844 230.089844 139.058594 233.644531 140 237.21875 C 139.980469 237.539062 139.632812 237.976562 138.957031 238.527344 C 138.289062 239.078125 137.722656 239.355469 137.25 239.355469 C 133.675781 238.871094 130.582031 237.394531 127.964844 234.921875 C 125.214844 232.328125 123.835938 229.085938 123.835938 225.207031 C 123.835938 221.316406 124.8125 217.996094 126.757812 215.246094 C 128.707031 212.488281 131.375 210.378906 134.757812 208.921875 C 138.144531 207.464844 141.972656 206.734375 146.25 206.734375 Z M 141.941406 239.804688 C 147.046875 234.90625 149.601562 228.300781 149.601562 219.984375 C 149.601562 216.449219 149.136719 212.894531 148.203125 209.320312 C 148.222656 209 148.566406 208.5625 149.234375 208.011719 C 149.910156 207.453125 150.480469 207.175781 150.949219 207.175781 C 154.527344 207.664062 157.613281 209.144531 160.207031 211.617188 C 162.972656 214.214844 164.355469 217.453125 164.355469 221.332031 C 164.355469 225.222656 163.378906 228.542969 161.433594 231.292969 C 159.484375 234.054688 156.816406 236.160156 153.433594 237.617188 C 150.046875 239.074219 146.21875 239.804688 141.941406 239.804688 Z M 197.464844 237.566406 C 193.097656 238.976562 188.746094 239.683594 184.40625 239.683594 C 176.039062 239.683594 171.851562 236.351562 171.851562 229.691406 C 171.851562 228.238281 172.164062 225.347656 172.78125 221.015625 C 173.402344 216.6875 173.710938 213.695312 173.710938 212.046875 C 173.710938 210.398438 173.636719 209.140625 173.488281 208.269531 C 176.402344 206.96875 178.964844 205.496094 181.179688 203.855469 C 183.394531 202.21875 185.542969 200.210938 187.625 197.828125 C 188.6875 197.507812 190.070312 197.347656 191.773438 197.347656 C 190.351562 202.367188 189.21875 207.527344 188.382812 212.835938 C 187.539062 218.132812 187.113281 222.042969 187.113281 224.5625 C 187.113281 227.082031 187.296875 228.902344 187.65625 230.015625 C 188.015625 231.132812 188.601562 232.003906 189.414062 232.621094 C 190.84375 233.707031 193.101562 234.246094 196.1875 234.246094 C 196.929688 234.246094 197.714844 234.214844 198.546875 234.15625 C 198.355469 235.558594 197.996094 236.695312 197.464844 237.566406 Z M 191.875 215.386719 C 192.066406 212.425781 192.542969 209.675781 193.304688 207.144531 C 195.398438 208.015625 197.730469 208.636719 200.304688 209.003906 C 200.472656 209.316406 200.632812 209.839844 200.785156 210.578125 C 200.933594 211.3125 201.007812 211.894531 201.007812 212.324219 C 198.046875 213.128906 195 214.148438 191.875 215.386719 Z M 217.824219 239.519531 L 204.421875 239.519531 C 206.273438 231.6875 207.691406 221.8125 208.671875 209.890625 C 208.671875 209.613281 209.019531 209.199219 209.722656 208.644531 C 210.425781 208.09375 211.011719 207.816406 211.480469 207.816406 L 224.851562 207.816406 C 223 215.78125 221.582031 225.644531 220.601562 237.414062 C 220.601562 237.6875 220.261719 238.105469 219.582031 238.671875 C 218.898438 239.234375 218.3125 239.519531 217.824219 239.519531 Z M 223.066406 203.507812 L 209.722656 203.507812 C 210.125 201.867188 210.390625 200.257812 210.519531 198.683594 C 210.519531 198.386719 210.859375 197.957031 211.542969 197.398438 C 212.222656 196.832031 212.808594 196.550781 213.296875 196.550781 L 226.703125 196.550781 C 226.429688 197.550781 226.144531 199.167969 225.84375 201.402344 C 225.84375 201.703125 225.507812 202.128906 224.832031 202.679688 C 224.164062 203.230469 223.574219 203.507812 223.066406 203.507812 Z M 256.839844 209.699219 C 256.839844 209.425781 257.207031 209.007812 257.941406 208.441406 C 258.675781 207.875 259.300781 207.59375 259.8125 207.59375 L 268.179688 207.59375 C 265.964844 210.871094 263.25 215.148438 260.035156 220.425781 C 259.867188 220.683594 259.359375 220.972656 258.515625 221.292969 C 257.675781 221.613281 256.992188 221.773438 256.460938 221.773438 C 257.121094 219.429688 257.453125 217.171875 257.453125 215 C 257.453125 212.828125 257.246094 211.058594 256.839844 209.699219 Z M 249.277344 239.519531 L 239.574219 239.519531 C 238.210938 232.304688 235.433594 222.34375 231.238281 209.636719 C 231.238281 209.335938 231.59375 208.910156 232.308594 208.359375 C 233.019531 207.808594 233.636719 207.53125 234.167969 207.53125 L 247.867188 207.53125 C 248.269531 211.039062 248.898438 214.324219 249.75 217.390625 C 251.328125 223.179688 252.980469 226.074219 254.703125 226.074219 C 255.464844 226.074219 256.078125 225.984375 256.542969 225.808594 C 257 225.625 257.265625 225.523438 257.347656 225.503906 C 256.6875 226.734375 255.652344 229.023438 254.242188 232.367188 C 252.828125 235.710938 252.074219 237.472656 251.984375 237.648438 C 251.902344 237.832031 251.554688 238.191406 250.933594 238.722656 C 250.3125 239.253906 249.761719 239.519531 249.277344 239.519531 Z M 287.261719 237.414062 C 287.261719 237.6875 286.921875 238.105469 286.238281 238.671875 C 285.558594 239.234375 284.960938 239.519531 284.453125 239.519531 L 269.964844 239.519531 C 272.878906 227.769531 274.953125 214.09375 276.1875 198.492188 C 276.1875 198.238281 276.527344 197.839844 277.210938 197.296875 C 277.890625 196.757812 278.476562 196.476562 278.964844 196.449219 C 285.347656 195.917969 290.21875 195.652344 293.585938 195.652344 C 290.519531 208.890625 288.414062 222.8125 287.261719 237.414062 Z M 310.441406 225.15625 L 309.992188 231.570312 C 309.992188 232.742188 310.207031 233.679688 310.636719 234.378906 C 311.058594 235.082031 311.84375 235.515625 312.996094 235.6875 C 312.785156 237.027344 312.433594 238.125 311.941406 238.976562 C 308.136719 239.867188 304.894531 240.316406 302.21875 240.316406 C 299.546875 240.316406 297.484375 239.949219 296.027344 239.210938 C 294.570312 238.484375 293.839844 237.339844 293.839844 235.777344 C 293.839844 234.226562 294.078125 232.105469 294.554688 229.414062 C 295.039062 226.722656 295.28125 224.8125 295.28125 223.671875 C 295.28125 222.527344 295.027344 221.574219 294.515625 220.8125 C 294.003906 220.042969 293.3125 219.617188 292.441406 219.535156 C 292.542969 218.574219 292.902344 217.722656 293.523438 216.980469 C 295.308594 216.042969 296.699219 214.585938 297.703125 212.609375 C 298.703125 210.628906 299.203125 208.488281 299.203125 206.195312 C 299.203125 202.742188 298.171875 199.941406 296.109375 197.796875 C 296.109375 197.476562 296.449219 197.027344 297.128906 196.449219 C 297.8125 195.875 298.398438 195.589844 298.886719 195.589844 C 302.695312 195.589844 305.992188 196.375 308.785156 197.949219 C 310.1875 198.761719 311.304688 199.867188 312.136719 201.269531 C 312.96875 202.679688 313.382812 204.296875 313.382812 206.121094 C 313.382812 209.125 312.007812 211.679688 309.257812 213.785156 C 306.511719 215.894531 302.839844 217.113281 298.242188 217.429688 L 301.125 217.6875 C 303.929688 217.960938 306.183594 218.699219 307.886719 219.902344 C 309.589844 221.101562 310.441406 222.851562 310.441406 225.15625 Z M 348.015625 207.789062 C 350.910156 208.789062 353.109375 210.1875 354.613281 211.988281 C 356.113281 213.785156 356.863281 215.703125 356.863281 217.75 C 356.863281 220.535156 355.660156 222.898438 353.257812 224.839844 C 350.851562 226.773438 347.574219 227.738281 343.417969 227.738281 C 342.125 227.738281 340.699219 227.523438 339.136719 227.097656 C 341.398438 225.691406 342.921875 223.863281 343.703125 221.609375 C 344.386719 219.648438 344.726562 217.351562 344.726562 214.714844 C 344.726562 214.203125 344.675781 212.640625 344.574219 210.023438 C 344.550781 209.746094 344.980469 209.304688 345.859375 208.707031 C 346.746094 208.113281 347.464844 207.808594 348.015625 207.789062 Z M 342.847656 207.277344 C 340.203125 209.0625 338.113281 211.410156 336.574219 214.324219 C 335.027344 217.246094 334.253906 220.367188 334.253906 223.683594 C 334.253906 227.007812 335.53125 229.710938 338.085938 231.796875 C 340.640625 233.878906 344.363281 234.921875 349.261719 234.921875 C 350.601562 234.921875 352.039062 234.804688 353.574219 234.574219 C 352.570312 236.148438 350.644531 237.460938 347.789062 238.515625 C 344.945312 239.566406 341.953125 240.089844 338.820312 240.089844 C 335.695312 240.089844 333.023438 239.777344 330.8125 239.152344 C 328.597656 238.523438 326.625 237.59375 324.886719 236.363281 C 323.148438 235.121094 321.785156 233.507812 320.789062 231.519531 C 319.789062 229.53125 319.289062 227.339844 319.289062 224.949219 C 319.289062 222.554688 319.660156 220.386719 320.402344 218.453125 C 321.144531 216.511719 322.164062 214.851562 323.464844 213.46875 C 324.765625 212.085938 326.28125 210.894531 328.003906 209.890625 C 331.429688 207.957031 335.375 206.992188 339.84375 206.992188 C 340.953125 206.992188 341.953125 207.085938 342.847656 207.277344 Z M 385.875 206.992188 C 383.347656 208.863281 381.453125 211.402344 380.183594 214.601562 C 378.917969 217.800781 378.285156 220.960938 378.285156 224.070312 C 378.285156 227.175781 378.628906 229.960938 379.316406 232.417969 C 380.011719 234.875 380.945312 236.523438 382.117188 237.351562 C 382.117188 237.664062 381.777344 238.105469 381.09375 238.671875 C 380.414062 239.234375 379.828125 239.519531 379.335938 239.519531 C 374.5 239.519531 370.601562 238.25 367.640625 235.71875 C 364.671875 233.183594 363.1875 229.769531 363.1875 225.472656 C 363.1875 220.324219 365.175781 215.980469 369.152344 212.445312 C 371.046875 210.765625 373.4375 209.433594 376.324219 208.453125 C 379.203125 207.476562 382.386719 206.992188 385.875 206.992188 Z M 400.535156 237.351562 C 400.535156 237.644531 400.195312 238.082031 399.515625 238.660156 C 398.832031 239.230469 398.238281 239.519531 397.726562 239.519531 L 384.894531 239.519531 C 385.828125 235.582031 386.835938 229.101562 387.917969 220.078125 C 389.007812 211.054688 389.820312 203.507812 390.351562 197.4375 C 390.351562 197.167969 390.691406 196.746094 391.371094 196.183594 C 392.054688 195.617188 392.636719 195.335938 393.128906 195.335938 L 406.5625 195.335938 C 405.4375 200.019531 404.269531 206.773438 403.058594 215.59375 C 401.847656 224.414062 401.003906 231.664062 400.535156 237.351562 Z M 400.535156 237.351562 " fill-opacity="1" fill-rule="nonzero"/><path fill="#f4f4f4" d="M 151.265625 284.335938 L 152.972656 286.328125 C 152.503906 287.171875 151.832031 287.960938 150.960938 288.699219 C 150.089844 289.433594 149.078125 290.023438 147.925781 290.464844 C 146.78125 290.90625 145.554688 291.128906 144.238281 291.128906 C 142.101562 291.128906 140.226562 290.640625 138.621094 289.667969 C 137.011719 288.699219 135.757812 287.308594 134.851562 285.488281 C 133.953125 283.679688 133.5 281.527344 133.5 279.035156 C 133.5 276.644531 133.953125 274.546875 134.851562 272.75 C 135.757812 270.960938 137.011719 269.566406 138.621094 268.574219 C 140.226562 267.585938 142.089844 267.089844 144.207031 267.089844 C 146.054688 267.089844 147.691406 267.394531 149.121094 268 C 150.550781 268.613281 151.601562 269.367188 152.269531 270.269531 L 151.453125 275.589844 L 149.5 275.589844 C 149.1875 273.492188 148.636719 272.101562 147.855469 271.414062 C 147.386719 271.003906 146.851562 270.703125 146.25 270.511719 C 145.652344 270.328125 144.902344 270.238281 144.003906 270.238281 C 142.804688 270.238281 141.722656 270.558594 140.753906 271.199219 C 139.78125 271.832031 139.011719 272.800781 138.445312 274.109375 C 137.875 275.410156 137.589844 277.050781 137.589844 279.035156 C 137.589844 280.839844 137.902344 282.394531 138.527344 283.703125 C 139.15625 285.003906 140 286 141.0625 286.695312 C 142.117188 287.398438 143.296875 287.746094 144.597656 287.746094 C 145.515625 287.746094 146.398438 287.585938 147.242188 287.257812 C 148.085938 286.9375 148.855469 286.515625 149.550781 285.992188 C 150.246094 285.472656 150.816406 284.921875 151.265625 284.335938 Z M 163.003906 290.925781 C 161.304688 290.925781 159.828125 290.578125 158.582031 289.882812 C 157.335938 289.179688 156.367188 288.195312 155.679688 286.921875 C 154.992188 285.644531 154.648438 284.15625 154.648438 282.445312 C 154.648438 280.722656 154.992188 279.222656 155.679688 277.949219 C 156.367188 276.671875 157.335938 275.679688 158.582031 274.976562 C 159.828125 274.269531 161.304688 273.914062 163.003906 273.914062 C 164.734375 273.914062 166.222656 274.269531 167.46875 274.976562 C 168.714844 275.679688 169.671875 276.671875 170.339844 277.949219 C 171 279.222656 171.332031 280.722656 171.332031 282.445312 C 171.332031 284.15625 171 285.644531 170.339844 286.921875 C 169.671875 288.195312 168.714844 289.179688 167.46875 289.882812 C 166.222656 290.578125 164.734375 290.925781 163.003906 290.925781 Z M 163.476562 288.21875 C 164.714844 288.117188 165.679688 287.589844 166.367188 286.644531 C 167.054688 285.691406 167.398438 284.46875 167.398438 282.976562 C 167.398438 282.820312 167.398438 282.671875 167.398438 282.527344 C 167.398438 282.378906 167.386719 282.222656 167.367188 282.066406 C 167.222656 280.378906 166.757812 279.054688 165.96875 278.09375 C 165.171875 277.132812 164.167969 276.652344 162.953125 276.652344 C 162.871094 276.652344 162.800781 276.65625 162.738281 276.664062 C 162.683594 276.675781 162.617188 276.683594 162.535156 276.683594 C 161.34375 276.757812 160.390625 277.277344 159.675781 278.238281 C 158.953125 279.203125 158.59375 280.441406 158.59375 281.945312 C 158.59375 282.089844 158.59375 282.230469 158.59375 282.375 C 158.59375 282.523438 158.601562 282.675781 158.621094 282.832031 C 158.757812 284.503906 159.238281 285.820312 160.0625 286.789062 C 160.886719 287.761719 161.898438 288.25 163.097656 288.25 C 163.160156 288.25 163.222656 288.242188 163.292969 288.226562 C 163.359375 288.222656 163.421875 288.21875 163.476562 288.21875 Z M 190.90625 289.984375 L 188.074219 290.894531 C 187.585938 290.5 187.207031 290.121094 186.941406 289.761719 C 186.675781 289.398438 186.453125 288.964844 186.277344 288.453125 C 185.671875 289.371094 184.921875 290.011719 184.03125 290.371094 C 183.136719 290.742188 182.210938 290.925781 181.25 290.925781 C 179.800781 290.925781 178.507812 290.605469 177.378906 289.964844 C 176.253906 289.332031 175.371094 288.382812 174.722656 287.113281 C 174.074219 285.847656 173.753906 284.292969 173.753906 282.445312 C 173.753906 280.585938 174.09375 279.023438 174.773438 277.757812 C 175.460938 276.488281 176.371094 275.53125 177.5 274.886719 C 178.625 274.238281 179.855469 273.914062 181.191406 273.914062 C 182.230469 273.914062 183.105469 274.050781 183.816406 274.324219 C 184.515625 274.601562 185.113281 275.085938 185.601562 275.773438 L 185.601562 267.058594 L 189.78125 267.652344 L 189.199219 285.777344 C 189.179688 286.539062 189.316406 287.292969 189.617188 288.042969 C 189.925781 288.785156 190.351562 289.433594 190.90625 289.984375 Z M 185.726562 284.242188 L 185.726562 279.15625 C 185.414062 278.53125 184.949219 277.972656 184.335938 277.492188 C 183.730469 277.007812 182.996094 276.765625 182.128906 276.765625 C 181.386719 276.765625 180.660156 276.949219 179.953125 277.316406 C 179.253906 277.679688 178.667969 278.273438 178.207031 279.105469 C 177.742188 279.941406 177.511719 281.066406 177.511719 282.476562 C 177.511719 283.871094 177.734375 284.976562 178.175781 285.785156 C 178.617188 286.601562 179.199219 287.1875 179.914062 287.542969 C 180.628906 287.890625 181.378906 288.0625 182.160156 288.0625 C 182.828125 288.0625 183.425781 287.894531 183.957031 287.554688 C 184.488281 287.214844 184.914062 286.746094 185.234375 286.152344 C 185.5625 285.566406 185.726562 284.929688 185.726562 284.242188 Z M 207.167969 285.714844 L 208.230469 287.71875 C 207.660156 288.480469 207.054688 289.097656 206.421875 289.566406 C 205.78125 290.035156 205.050781 290.378906 204.226562 290.597656 C 203.402344 290.816406 202.394531 290.925781 201.203125 290.925781 C 199.492188 290.925781 198.03125 290.546875 196.820312 289.789062 C 195.601562 289.035156 194.667969 288.011719 194.019531 286.726562 C 193.375 285.445312 193.050781 284.007812 193.050781 282.414062 C 193.050781 280.808594 193.382812 279.363281 194.050781 278.082031 C 194.71875 276.796875 195.65625 275.78125 196.859375 275.039062 C 198.066406 274.289062 199.472656 273.914062 201.078125 273.914062 C 202.652344 273.914062 204 274.273438 205.125 274.988281 C 206.257812 275.703125 207.125 276.722656 207.730469 278.050781 C 208.335938 279.375 208.640625 280.945312 208.640625 282.773438 L 208.640625 283.273438 L 197.996094 283.273438 L 197.339844 280.972656 L 204.585938 280.390625 C 204.523438 279.351562 204.234375 278.503906 203.714844 277.847656 C 203.199219 277.1875 202.371094 276.855469 201.234375 276.855469 C 199.917969 276.855469 198.832031 277.34375 197.972656 278.316406 C 197.125 279.285156 196.699219 280.660156 196.699219 282.445312 C 196.699219 283.726562 196.9375 284.78125 197.421875 285.613281 C 197.898438 286.441406 198.503906 287.058594 199.242188 287.460938 C 199.976562 287.863281 200.71875 288.0625 201.46875 288.0625 C 202.722656 288.0625 203.839844 287.851562 204.828125 287.429688 C 205.824219 287.015625 206.601562 286.441406 207.167969 285.714844 Z M 239.265625 284.335938 L 240.972656 286.328125 C 240.503906 287.171875 239.832031 287.960938 238.960938 288.699219 C 238.089844 289.433594 237.078125 290.023438 235.925781 290.464844 C 234.78125 290.90625 233.554688 291.128906 232.238281 291.128906 C 230.101562 291.128906 228.226562 290.640625 226.621094 289.667969 C 225.011719 288.699219 223.757812 287.308594 222.851562 285.488281 C 221.949219 283.679688 221.5 281.527344 221.5 279.035156 C 221.5 276.644531 221.949219 274.546875 222.851562 272.75 C 223.757812 270.960938 225.011719 269.566406 226.621094 268.574219 C 228.226562 267.585938 230.089844 267.089844 232.207031 267.089844 C 234.054688 267.089844 235.691406 267.394531 237.121094 268 C 238.550781 268.613281 239.601562 269.367188 240.269531 270.269531 L 239.449219 275.589844 L 237.511719 275.589844 C 237.191406 273.492188 236.636719 272.101562 235.855469 271.414062 C 235.386719 271.003906 234.851562 270.703125 234.25 270.511719 C 233.652344 270.328125 232.902344 270.238281 232.003906 270.238281 C 230.804688 270.238281 229.722656 270.558594 228.753906 271.199219 C 227.78125 271.832031 227.011719 272.800781 226.445312 274.109375 C 225.875 275.410156 225.589844 277.050781 225.589844 279.035156 C 225.589844 280.839844 225.902344 282.394531 226.527344 283.703125 C 227.15625 285.003906 228 286 229.0625 286.695312 C 230.125 287.398438 231.300781 287.746094 232.597656 287.746094 C 233.515625 287.746094 234.398438 287.585938 235.242188 287.257812 C 236.085938 286.9375 236.855469 286.515625 237.550781 285.992188 C 238.246094 285.472656 238.816406 284.921875 239.265625 284.335938 Z M 247.714844 290.597656 L 244.128906 291.007812 L 243.539062 273.773438 L 247.714844 274.273438 L 247.714844 275.949219 C 248.089844 275.476562 248.46875 275.097656 248.851562 274.804688 C 249.230469 274.503906 249.714844 274.285156 250.300781 274.148438 C 250.894531 274.015625 251.667969 273.9375 252.628906 273.914062 L 253.304688 277.5 C 252.65625 277.386719 252.066406 277.328125 251.535156 277.328125 C 249.554688 277.328125 248.28125 278.121094 247.714844 279.707031 Z M 270.863281 289.984375 L 268.046875 290.894531 C 267.554688 290.5 267.175781 290.121094 266.910156 289.761719 C 266.644531 289.398438 266.425781 288.964844 266.246094 288.453125 C 265.894531 289.058594 265.394531 289.542969 264.746094 289.902344 C 264.097656 290.269531 263.378906 290.53125 262.589844 290.691406 C 261.792969 290.847656 260.984375 290.925781 260.160156 290.925781 C 258.488281 290.925781 257.238281 290.539062 256.398438 289.769531 C 255.554688 289.007812 255.113281 287.941406 255.070312 286.574219 L 255.070312 286.449219 C 255.070312 284.882812 255.570312 283.648438 256.574219 282.742188 C 257.574219 281.84375 258.964844 281.195312 260.75 280.800781 C 261.964844 280.527344 262.988281 280.230469 263.824219 279.902344 C 264.65625 279.582031 265.074219 279.214844 265.074219 278.796875 C 265.074219 277.484375 264.042969 276.828125 261.988281 276.828125 C 260.945312 276.828125 259.933594 277.027344 258.953125 277.429688 C 257.972656 277.832031 257.167969 278.308594 256.542969 278.859375 L 255.367188 276.746094 C 256.054688 275.839844 257 275.140625 258.207031 274.652344 C 259.414062 274.160156 260.777344 273.914062 262.304688 273.914062 C 264.578125 273.914062 266.292969 274.335938 267.441406 275.171875 C 268.585938 276.003906 269.160156 277.308594 269.160156 279.09375 L 269.160156 285.777344 C 269.160156 286.539062 269.308594 287.292969 269.609375 288.042969 C 269.902344 288.785156 270.320312 289.433594 270.863281 289.984375 Z M 259.125 285.949219 L 259.125 286.152344 C 259.148438 286.683594 259.304688 287.136719 259.597656 287.511719 C 259.894531 287.878906 260.339844 288.0625 260.925781 288.0625 C 261.789062 288.0625 262.632812 287.820312 263.457031 287.328125 C 264.28125 286.839844 264.851562 286.222656 265.164062 285.480469 C 265.261719 285.261719 265.320312 284.992188 265.347656 284.671875 C 265.382812 284.34375 265.398438 284.003906 265.398438 283.652344 C 265.398438 283.148438 265.378906 282.6875 265.339844 282.273438 C 265.296875 281.863281 265.277344 281.660156 265.277344 281.660156 C 264.847656 281.992188 264.296875 282.273438 263.621094 282.507812 C 262.941406 282.746094 262.230469 282.96875 261.488281 283.179688 C 260.757812 283.378906 260.183594 283.703125 259.761719 284.152344 C 259.339844 284.609375 259.125 285.207031 259.125 285.949219 Z M 278.484375 290.597656 L 275.023438 290.984375 L 274.574219 277.011719 L 272.398438 277.011719 L 271.816406 274.742188 L 274.492188 274.476562 L 274.429688 272.535156 L 274.429688 272.210938 C 274.429688 270.308594 274.984375 268.984375 276.09375 268.234375 C 277.199219 267.492188 278.96875 267.113281 281.40625 267.089844 L 281.929688 269.5 C 280.613281 269.5 279.710938 269.714844 279.222656 270.144531 C 278.730469 270.582031 278.484375 271.40625 278.484375 272.617188 L 278.484375 274.070312 L 281.582031 273.742188 L 281.582031 277.011719 L 278.484375 277.011719 Z M 292.289062 288.535156 L 291.707031 290.925781 C 289.425781 290.925781 287.777344 290.472656 286.761719 289.566406 C 285.738281 288.667969 285.226562 287.363281 285.226562 285.652344 L 285.226562 277.011719 L 282.992188 277.011719 L 282.398438 274.742188 L 285.226562 274.445312 L 285.226562 269.15625 L 289.375 269.738281 L 289.234375 274.039062 L 292.175781 273.742188 L 292.175781 277.011719 L 289.109375 277.011719 L 288.8125 285.121094 L 288.8125 285.417969 C 288.8125 286.378906 289.066406 287.136719 289.570312 287.695312 C 290.066406 288.253906 290.972656 288.535156 292.289062 288.535156 Z M 308.859375 285.714844 L 309.910156 287.71875 C 309.34375 288.480469 308.742188 289.097656 308.101562 289.566406 C 307.46875 290.035156 306.738281 290.378906 305.914062 290.597656 C 305.089844 290.816406 304.082031 290.925781 302.882812 290.925781 C 301.171875 290.925781 299.710938 290.546875 298.5 289.789062 C 297.28125 289.035156 296.347656 288.011719 295.699219 286.726562 C 295.054688 285.445312 294.730469 284.007812 294.730469 282.414062 C 294.730469 280.808594 295.0625 279.363281 295.730469 278.082031 C 296.398438 276.796875 297.335938 275.78125 298.539062 275.039062 C 299.746094 274.289062 301.152344 273.914062 302.757812 273.914062 C 304.332031 273.914062 305.679688 274.273438 306.804688 274.988281 C 307.933594 275.703125 308.804688 276.722656 309.410156 278.050781 C 310.023438 279.375 310.328125 280.945312 310.328125 282.773438 L 310.328125 283.273438 L 299.671875 283.273438 L 299.03125 280.972656 L 306.261719 280.390625 C 306.203125 279.351562 305.914062 278.503906 305.394531 277.847656 C 304.878906 277.1875 304.050781 276.855469 302.914062 276.855469 C 301.597656 276.855469 300.515625 277.34375 299.664062 278.316406 C 298.804688 279.285156 298.375 280.660156 298.375 282.445312 C 298.375 283.726562 298.617188 284.78125 299.101562 285.613281 C 299.578125 286.441406 300.183594 287.058594 300.921875 287.460938 C 301.65625 287.863281 302.398438 288.0625 303.148438 288.0625 C 304.398438 288.0625 305.523438 287.851562 306.519531 287.429688 C 307.507812 287.015625 308.285156 286.441406 308.859375 285.714844 Z M 317.796875 290.597656 L 314.210938 291.007812 L 313.617188 273.773438 L 317.796875 274.273438 L 317.796875 275.949219 C 318.171875 275.476562 318.550781 275.097656 318.929688 274.804688 C 319.3125 274.503906 319.800781 274.285156 320.390625 274.148438 C 320.976562 274.015625 321.75 273.9375 322.710938 273.914062 L 323.386719 277.5 C 322.738281 277.386719 322.148438 277.328125 321.617188 277.328125 C 319.640625 277.328125 318.367188 278.121094 317.796875 279.707031 Z M 338.78125 276.5625 L 337.542969 278.59375 C 336.972656 278.042969 336.175781 277.59375 335.152344 277.246094 C 334.140625 276.890625 333.132812 276.714844 332.128906 276.714844 C 331.148438 276.714844 330.449219 276.882812 330.035156 277.214844 C 329.625 277.546875 329.421875 277.941406 329.421875 278.390625 C 329.421875 278.820312 329.671875 279.199219 330.167969 279.535156 C 330.671875 279.867188 331.5625 280.164062 332.835938 280.421875 C 335.046875 280.851562 336.667969 281.523438 337.699219 282.433594 C 338.734375 283.347656 339.25 284.550781 339.25 286.042969 C 339.25 287.609375 338.652344 288.8125 337.460938 289.65625 C 336.277344 290.503906 334.527344 290.925781 332.210938 290.925781 C 331.230469 290.925781 330.257812 290.734375 329.289062 290.351562 C 328.316406 289.964844 327.449219 289.492188 326.695312 288.933594 C 325.9375 288.375 325.367188 287.851562 324.980469 287.359375 L 326.417969 285.449219 C 326.792969 285.84375 327.328125 286.234375 328.023438 286.625 C 328.71875 287.019531 329.464844 287.34375 330.261719 287.59375 C 331.050781 287.851562 331.75 287.984375 332.363281 287.984375 C 333.367188 287.984375 334.09375 287.824219 334.550781 287.511719 C 335.015625 287.199219 335.246094 286.757812 335.246094 286.183594 C 335.246094 285.558594 334.914062 285.046875 334.253906 284.652344 C 333.601562 284.265625 332.574219 283.921875 331.179688 283.628906 C 329.164062 283.214844 327.714844 282.574219 326.828125 281.710938 C 325.949219 280.851562 325.511719 279.824219 325.511719 278.625 C 325.511719 277.269531 326.089844 276.144531 327.246094 275.253906 C 328.398438 274.359375 330.042969 273.914062 332.179688 273.914062 C 333.183594 273.914062 334.128906 274.046875 335.019531 274.3125 C 335.914062 274.578125 336.6875 274.917969 337.351562 275.324219 C 338.003906 275.742188 338.480469 276.152344 338.78125 276.5625 Z M 338.78125 276.5625 " fill-opacity="1" fill-rule="nonzero"/></svg>